<svg width="28" height="28" viewBox="0 0 28 28" fill="none" xmlns="http://www.w3.org/2000/svg">
<path d="M14 0C10.1982 0 9.72159 0.0241763 8.22851 0.0856319C6.73849 0.153702 5.72288 0.386895 4.83252 0.733167C3.91193 1.09085 3.12806 1.57173 2.34984 2.35013C1.57159 3.12853 1.09528 3.90825 0.737585 4.82894C0.391433 5.71953 0.153805 6.73947 0.0858366 8.22974C0.0175595 9.72308 0 10.1998 0 14.0022C0 17.8048 0.0175539 18.2813 0.0858366 19.7746C0.153894 21.2649 0.391433 22.2807 0.737585 23.1713C1.09528 24.092 1.57159 24.8717 2.34984 25.6501C3.12806 26.4285 3.91193 26.9089 4.83252 27.2668C5.72288 27.6129 6.73849 27.8507 8.22851 27.9188C9.72159 27.9868 10.1982 28 14 28C17.8018 28 18.2784 27.9781 19.7715 27.9188C21.2615 27.8507 22.2814 27.6129 23.1718 27.2668C24.0924 26.9089 24.8719 26.4285 25.6502 25.6501C26.4284 24.8717 26.9047 24.092 27.2624 23.1713C27.6085 22.2807 27.8462 21.2649 27.9142 19.7746C27.9824 18.2813 28 17.8048 28 14.0022C28 10.1998 27.9824 9.72308 27.9142 8.22974C27.8461 6.73947 27.6085 5.71953 27.2624 4.82894C26.9047 3.90825 26.4284 3.12853 25.6502 2.35013C24.8719 1.57173 24.0924 1.09085 23.1718 0.733167C22.2814 0.386895 21.2615 0.153702 19.7715 0.0856319C18.2784 0.0175625 17.8018 0 14 0ZM14 2.52162C17.7378 2.52162 18.1795 2.54355 19.6557 2.60286C21.0205 2.66434 21.7652 2.89578 22.2585 3.08747C22.9119 3.34152 23.3766 3.64409 23.8664 4.13397C24.3563 4.62385 24.6588 5.08869 24.9126 5.74215C25.1043 6.23554 25.3349 6.98035 25.3972 8.34524C25.4644 9.82167 25.4786 10.2637 25.4786 14.002C25.4786 17.7405 25.4633 18.1825 25.3972 19.6587C25.3348 21.0238 25.1043 21.7642 24.9126 22.2576C24.6588 22.9111 24.3563 23.3799 23.8664 23.87C23.3766 24.3599 22.9119 24.6624 22.2585 24.9165C21.7652 25.1075 21.0205 25.3348 19.6557 25.3969C18.1798 25.465 17.7381 25.4782 14 25.4782C10.2619 25.4782 9.82023 25.4562 8.3443 25.3969C6.97948 25.3354 6.23911 25.1082 5.74583 24.9165C5.09239 24.6624 4.62341 24.3599 4.13359 23.87C3.6438 23.3799 3.34132 22.9111 3.08736 22.2576C2.8957 21.7642 2.66942 21.0238 2.60712 19.6587C2.53993 18.1825 2.52566 17.7405 2.52566 14.002C2.52566 10.2637 2.54103 9.82167 2.60712 8.34524C2.66947 6.98035 2.8957 6.23554 3.08736 5.74215C3.34132 5.08869 3.6438 4.62385 4.13359 4.13397C4.62341 3.64409 5.09239 3.34152 5.74583 3.08747C6.23911 2.89644 6.97948 2.66522 8.3443 2.60286C9.82045 2.5348 10.2622 2.52162 14 2.52162ZM21.4738 4.84606C20.5461 4.84606 19.7929 5.59921 19.7929 6.52714C19.7929 7.45507 20.5461 8.20822 21.4738 8.20822C22.4016 8.20822 23.1546 7.45507 23.1546 6.52714C23.1546 5.59921 22.4016 4.84606 21.4738 4.84606ZM14 6.81018C10.03 6.81018 6.81351 10.0316 6.81351 14.0022C6.81351 17.973 10.03 21.1898 14 21.1898C17.97 21.1898 21.1908 17.973 21.1908 14.0022C21.1908 10.0316 17.97 6.81018 14 6.81018ZM14 9.33619C16.5771 9.33619 18.6652 11.4248 18.6652 14.0022C18.6652 16.5798 16.5771 18.6682 14 18.6682C11.4229 18.6682 9.33479 16.5798 9.33479 14.0022C9.33479 11.4248 11.4229 9.33619 14 9.33619Z" fill="white"/>
</svg>
