<svg width="160" height="62" viewBox="0 0 160 62" fill="none" xmlns="http://www.w3.org/2000/svg">
<mask id="path-1-inside-1_1_34" fill="white">
<path d="M37.8424 0V44.7158H23.9255L22.8749 42.8524C20.6481 44.5289 17.5565 45.3356 13.6001 45.3356C9.89098 45.3356 6.6831 44.4671 4.01921 42.6655C1.29786 40.872 0 37.6977 0 33.1023V25.6485C0 21.0531 1.17489 17.8237 3.64763 15.8984C6.12172 14.035 9.15183 13.0414 12.8609 13.0414C15.8296 13.0414 18.6084 13.8481 21.271 15.3404V0H37.8424ZM17.376 37.0147C17.8719 37.4489 18.4895 37.6345 19.2941 37.6345C19.9731 37.6345 20.8392 37.4489 21.8337 36.9515V22.7928C20.7831 22.5441 19.8555 22.3572 19.0522 22.3572C18.4201 22.3624 17.8081 22.5812 17.3146 22.9784C16.82 23.414 16.6342 24.0338 16.6342 24.8418V35.0907C16.6329 35.9579 16.8802 36.5791 17.376 37.0147Z"/>
<path d="M119.16 33.4935C119.16 36.536 118.478 38.8969 117.18 40.5722C115.819 42.2501 113.903 43.4292 111.299 44.0503C108.702 44.7346 105.302 45.0452 101.097 45.0452C96.5213 45.0452 92.9966 44.8583 90.461 44.3609C87.864 43.8648 85.823 42.7475 84.3393 40.9459C82.7929 39.1443 82.051 36.3505 82.051 32.5618V24.6119C82.051 20.8232 82.7929 18.024 84.3393 16.2278C85.823 14.4894 87.864 13.3708 90.3996 12.8747C92.9351 12.3786 96.5213 12.1298 101.093 12.1298C105.606 12.1298 109.192 12.4404 111.785 13.0602C114.379 13.68 116.238 14.6736 117.413 16.0423C118.526 17.4701 119.15 19.4572 119.15 21.9418V24.5501H103.206V22.7485C103.206 21.8181 102.958 21.1351 102.587 20.6377C102.381 20.3966 102.124 20.205 101.834 20.0771C101.545 19.9491 101.231 19.888 100.915 19.8982C100.173 19.8982 99.6169 20.1465 99.2453 20.643C98.8751 21.1391 98.6893 21.8853 98.6893 22.8171V34.12C98.6893 36.1072 99.4311 37.0389 100.915 37.0389C101.595 37.0389 102.151 36.852 102.584 36.3559C102.956 35.8584 103.203 35.1136 103.203 34.12V31.3262H119.16V33.4935Z"/>
<path d="M124.14 16.2278C125.623 14.4889 127.664 13.3712 130.262 12.8747C132.801 12.3772 136.32 12.1298 140.897 12.1298C145.474 12.1298 148.997 12.3772 151.59 12.8747C154.126 13.3703 156.167 14.488 157.712 16.2278C159.195 18.0294 160 20.8232 160 24.6119V32.5618C160 36.3505 159.198 39.1497 157.712 40.9459C156.165 42.7462 154.126 43.8648 151.59 44.3609C148.993 44.8583 145.468 45.0452 140.897 45.0452C136.326 45.0452 132.797 44.8583 130.262 44.3609C127.664 43.8648 125.623 42.7475 124.14 40.9459C122.593 39.1443 121.852 36.3505 121.852 32.5618V24.6119C121.852 20.8232 122.593 18.0294 124.14 16.2278ZM138.486 34.1093C138.486 36.0964 139.288 37.0281 140.892 37.0281C142.496 37.0281 143.364 36.0964 143.364 34.1093V22.6813C143.364 20.8178 142.5 19.8243 140.892 19.8243C140.09 19.8243 139.47 20.073 139.098 20.5704C138.665 21.0665 138.48 21.8127 138.48 22.6813L138.486 34.1093Z"/>
<path d="M79.1279 34.9845V13.2484H61.9777V35.1633C61.9777 35.9082 61.7932 36.4043 61.4217 36.7149C61.0501 37.0886 60.5555 37.2123 60.061 37.2123C59.5664 37.2123 59.0719 37.0886 58.7016 36.7149C58.3301 36.4043 58.1443 35.9082 58.1443 35.1633V13.2484H41.0516V34.9845C41.0516 38.5868 42.0411 41.1333 44.0202 42.6238C45.9984 44.1767 48.4712 44.9215 51.4398 44.9215H68.745C71.7123 44.9215 74.1864 44.1767 76.1646 42.6238C78.1401 41.1333 79.1279 38.5868 79.1279 34.9845Z"/>
<path d="M4.59931 61.9977C3.77595 61.9977 3.10764 61.8735 2.59438 61.6253C2.15551 61.4306 1.77323 61.1266 1.48365 60.7419C1.27057 60.4303 1.13741 60.0705 1.09603 59.6946V59.6798C1.09552 59.645 1.10215 59.6104 1.11548 59.5783C1.12882 59.5461 1.14858 59.5171 1.17355 59.4929C1.23388 59.4424 1.31022 59.4152 1.38875 59.4163H2.67324C2.75956 59.4137 2.84456 59.4381 2.91642 59.4863C2.98828 59.5345 3.04344 59.604 3.07422 59.6852C3.11472 59.8225 3.18317 59.9498 3.27521 60.059C3.36725 60.1683 3.48088 60.2571 3.60887 60.3198C3.9483 60.4565 4.31293 60.5184 4.67817 60.5013C5.05303 60.5183 5.42468 60.4249 5.74746 60.2324C5.88146 60.1508 5.99098 60.0342 6.06441 59.895C6.13783 59.7558 6.17242 59.5992 6.16449 59.4418C6.16449 58.749 5.74791 58.4026 4.91475 58.4026H4.05931C4.014 58.4047 3.96873 58.3976 3.92623 58.3817C3.88372 58.3657 3.84488 58.3413 3.81204 58.3098C3.75205 58.2416 3.71921 58.1535 3.71981 58.0624V57.3902C3.71861 57.3471 3.72618 57.3043 3.74204 57.2643C3.7579 57.2243 3.78172 57.188 3.81204 57.1576C3.84243 57.1219 3.88049 57.0937 3.92334 57.0751C3.96618 57.0565 4.01268 57.0479 4.05931 57.05H4.84658C5.21682 57.05 5.49484 56.9814 5.6793 56.8483C5.7758 56.7669 5.85144 56.6633 5.89982 56.5463C5.9482 56.4293 5.96792 56.3024 5.95731 56.1761C5.95811 56.0357 5.92768 55.8969 5.86824 55.7699C5.8088 55.6429 5.72186 55.5309 5.6138 55.442C5.39727 55.2439 5.05777 55.1454 4.5953 55.1462C4.13283 55.1471 3.79333 55.2197 3.57679 55.3641C3.35132 55.5403 3.19013 55.7865 3.11833 56.0645C3.0863 56.1443 3.03065 56.2123 2.95891 56.2592C2.88718 56.3061 2.80285 56.3296 2.71735 56.3267H1.48231C1.40334 56.328 1.32652 56.3008 1.26578 56.2501C1.23768 56.2252 1.21596 56.1939 1.20246 56.1588C1.18897 56.1237 1.18409 56.0858 1.18825 56.0484C1.21001 55.6331 1.34353 55.2316 1.57454 54.8868C1.85747 54.4853 2.24834 54.1733 2.70131 53.9873C3.20566 53.7498 3.83832 53.631 4.59931 53.631C5.74078 53.631 6.57929 53.8529 7.11482 54.2965C7.65036 54.7402 7.92303 55.278 7.93283 55.9099C7.94514 56.2606 7.86538 56.6084 7.7016 56.9183C7.52956 57.2126 7.27013 57.4454 6.95978 57.5838C7.78313 57.8948 8.19481 58.5715 8.19481 59.6139C8.20252 59.9688 8.11606 60.3193 7.94432 60.6293C7.77258 60.9394 7.52178 61.1978 7.21774 61.3779C6.57349 61.7911 5.70068 61.9977 4.59931 61.9977Z"/>
<path d="M12.2715 61.9977C11.7731 62.002 11.2798 61.8959 10.8266 61.6871C10.4161 61.4887 10.061 61.1907 9.79341 60.8199C9.48482 60.3684 9.36226 59.8141 9.45149 59.2735C9.54073 58.733 9.8348 58.2482 10.2719 57.9212C10.8378 57.4865 11.6143 57.1921 12.6016 57.0379L14.7162 56.7273V56.402C14.7162 55.9538 14.603 55.6182 14.3767 55.395C14.1503 55.1718 13.7903 55.058 13.2967 55.0535C13.0122 55.04 12.7295 55.1046 12.4787 55.2404C12.2938 55.348 12.1228 55.478 11.9694 55.6276L11.7221 55.875C11.7114 55.9298 11.6815 55.9791 11.6379 56.0138C11.5943 56.0486 11.5398 56.0665 11.4842 56.0645H10.2813C10.1904 56.0654 10.1026 56.0318 10.0353 55.9704C10.0036 55.9379 9.97887 55.8992 9.96277 55.8566C9.94666 55.814 9.93951 55.7685 9.94177 55.723C9.97696 55.4033 10.1053 55.1011 10.3107 54.8545C10.6117 54.4824 10.9985 54.1898 11.4374 54.0021C12.0251 53.737 12.665 53.6101 13.3087 53.631C14.5224 53.631 15.4072 53.9049 15.9632 54.4525C16.5193 55.0001 16.7973 55.7172 16.7973 56.6037V61.4706C16.7989 61.5206 16.7901 61.5703 16.7715 61.6166C16.7528 61.6629 16.7247 61.7048 16.689 61.7395C16.6557 61.777 16.6143 61.8063 16.5679 61.8252C16.5216 61.8441 16.4716 61.852 16.4217 61.8484H15.1412C15.043 61.8484 14.9489 61.8092 14.8794 61.7394C14.81 61.6695 14.771 61.5748 14.771 61.476V60.871C14.5241 61.22 14.1954 61.5022 13.814 61.6925C13.3302 61.9128 12.8022 62.0172 12.2715 61.9977ZM12.7955 60.5093C13.0528 60.5187 13.3092 60.4739 13.5484 60.3778C13.7875 60.2817 14.0041 60.1365 14.1842 59.9514C14.5406 59.5803 14.7189 59.0425 14.7189 58.338V58.0288L13.1764 58.2762C11.993 58.4635 11.4014 58.8615 11.4014 59.4701C11.3963 59.623 11.4305 59.7746 11.5008 59.9102C11.571 60.0459 11.6749 60.161 11.8023 60.2445C12.1011 60.4272 12.446 60.5192 12.7955 60.5093Z"/>
<path d="M26.4263 57.6268C26.4463 57.854 26.457 58.0301 26.457 58.1646C26.4552 58.325 26.4449 58.4852 26.4263 58.6446C26.3755 59.6771 26.0191 60.4932 25.357 61.0928C24.6949 61.6925 23.7642 61.9923 22.5648 61.9923C21.2888 61.9923 20.3371 61.6616 19.7098 61.0001C19.0825 60.3386 18.743 59.3468 18.6913 58.0248L18.6752 57.0944L18.6913 56.164C18.7216 54.6976 18.9479 53.5974 19.3703 52.8633C19.7836 52.136 20.4316 51.5724 21.2068 51.2661C22.0088 50.9255 23.3102 50.5378 25.1111 50.1031L25.2033 50.0883C25.2438 50.0882 25.2838 50.0964 25.321 50.1123C25.3583 50.1283 25.3919 50.1517 25.4198 50.1811C25.4532 50.2042 25.4815 50.234 25.5026 50.2688C25.5238 50.3035 25.5375 50.3424 25.5428 50.3828L25.7433 51.4221L25.7593 51.5148C25.76 51.594 25.7325 51.6707 25.6818 51.7313C25.63 51.7932 25.5597 51.8366 25.4813 51.855C25.2755 51.8967 25.1204 51.933 25.0175 51.9639C24.1131 52.1412 23.2203 52.3742 22.3443 52.6617C21.8627 52.8164 21.4417 53.1198 21.1413 53.5288C20.8646 53.912 20.7042 54.5009 20.6641 55.2968C20.9254 54.9752 21.2583 54.72 21.6359 54.552C22.0434 54.3673 22.4854 54.2724 22.9324 54.2737C24.0124 54.2737 24.8509 54.5735 25.4479 55.1731C26.0449 55.7728 26.3711 56.5907 26.4263 57.6268ZM24.2971 58.5679C24.3093 58.4339 24.3142 58.2992 24.3118 58.1646C24.3118 57.9468 24.3118 57.7922 24.2971 57.6994C24.2757 57.0585 24.1211 56.5678 23.8333 56.2272C23.6933 56.0571 23.5157 55.9222 23.3148 55.8332C23.1138 55.7443 22.895 55.7038 22.6757 55.715C22.4302 55.7035 22.1851 55.7445 21.9566 55.8354C21.728 55.9262 21.5212 56.0648 21.3498 56.242C21.0192 56.5835 20.8441 57.0693 20.8245 57.6994L20.8085 58.1646L20.8245 58.5679C20.8446 59.22 21.005 59.7148 21.303 60.0563C21.6011 60.3978 22.0235 60.5524 22.5688 60.5524C23.1142 60.5524 23.5298 60.387 23.8186 60.0563C24.1073 59.7255 24.2757 59.224 24.2971 58.572V58.5679Z"/>
<path d="M31.869 61.9977C30.6545 61.9977 29.7188 61.6876 29.0621 61.0673C28.4054 60.4471 28.049 59.5893 27.9928 58.494L27.9768 57.8123L27.9928 57.1307C28.0436 56.0461 28.4036 55.1946 29.0728 54.5762C29.742 53.9577 30.6732 53.644 31.8663 53.6351C33.0488 53.6351 33.9746 53.9488 34.6438 54.5762C35.313 55.2036 35.673 56.0551 35.7238 57.1307C35.7345 57.2544 35.7399 57.4816 35.7399 57.8123C35.7399 58.1431 35.7345 58.3703 35.7238 58.494C35.673 59.5902 35.3166 60.4479 34.6545 61.0673C33.9924 61.6867 33.0639 61.9968 31.869 61.9977ZM31.869 60.4327C32.4143 60.4327 32.8309 60.262 33.1187 59.9205C33.4066 59.579 33.5661 59.0779 33.5973 58.4173C33.608 58.3138 33.612 58.1122 33.612 57.8123C33.612 57.5125 33.612 57.3122 33.5973 57.2087C33.5759 56.5472 33.4164 56.0457 33.1187 55.7042C32.8211 55.3627 32.4045 55.1875 31.869 55.1785C31.3237 55.1785 30.9017 55.3537 30.6032 55.7042C30.3047 56.0547 30.1452 56.5562 30.1247 57.2087L30.11 57.8123L30.1247 58.4173C30.1452 59.0788 30.3047 59.5799 30.6032 59.9205C30.9017 60.2611 31.3237 60.4318 31.869 60.4327Z"/>
<path d="M40.0438 61.8458C39.9456 61.8458 39.8514 61.8065 39.782 61.7367C39.7125 61.6668 39.6735 61.5721 39.6735 61.4733V55.442H37.174C37.0759 55.442 36.9817 55.4028 36.9123 55.333C36.8428 55.2631 36.8038 55.1684 36.8038 55.0696V54.154C36.7999 54.1038 36.8077 54.0534 36.8265 54.0068C36.8453 53.9601 36.8746 53.9185 36.9121 53.8851C36.9465 53.8491 36.9882 53.8208 37.0342 53.8021C37.0803 53.7833 37.1297 53.7745 37.1794 53.7762H44.2007C44.2986 53.7762 44.3926 53.8153 44.462 53.8848C44.5314 53.9544 44.5705 54.0488 44.5709 54.1473V55.0629C44.5725 55.1128 44.5637 55.1626 44.5451 55.2089C44.5264 55.2552 44.4984 55.2971 44.4626 55.3318C44.4294 55.3694 44.388 55.3988 44.3416 55.4177C44.2953 55.4366 44.2452 55.4445 44.1953 55.4407H41.7025V61.4693C41.7041 61.5192 41.6954 61.569 41.6767 61.6153C41.6581 61.6616 41.63 61.7035 41.5942 61.7382C41.561 61.7758 41.5196 61.8051 41.4732 61.824C41.4269 61.8429 41.3768 61.8508 41.3269 61.8471L40.0438 61.8458Z"/>
<path d="M45.7124 61.8458C45.6613 61.8478 45.6103 61.8393 45.5626 61.8205C45.515 61.8018 45.4717 61.7734 45.4356 61.737C45.3994 61.7006 45.3711 61.6571 45.3525 61.6092C45.3339 61.5612 45.3254 61.51 45.3274 61.4585V60.4663C45.3254 60.4208 45.3325 60.3752 45.3483 60.3325C45.3642 60.2898 45.3884 60.2507 45.4197 60.2176C45.4951 60.1539 45.5887 60.1158 45.687 60.1087C46.1396 60.0791 46.464 59.7654 46.66 59.1676C46.8561 58.5697 46.9536 57.5986 46.9528 56.2541V54.154C46.9489 54.1038 46.9567 54.0534 46.9754 54.0068C46.9942 53.9601 47.0235 53.9185 47.061 53.8851C47.0955 53.8492 47.1372 53.8209 47.1832 53.8022C47.2293 53.7834 47.2787 53.7746 47.3283 53.7762H52.8379C52.9359 53.7762 53.0298 53.8153 53.0992 53.8848C53.1686 53.9544 53.2078 54.0488 53.2081 54.1473V61.4639C53.2098 61.5139 53.201 61.5636 53.1823 61.6099C53.1637 61.6562 53.1356 61.6981 53.0999 61.7328C53.0667 61.7705 53.0253 61.7999 52.9789 61.8188C52.9325 61.8376 52.8824 61.8455 52.8325 61.8417H51.5213C51.4717 61.8431 51.4223 61.8342 51.3763 61.8154C51.3303 61.7967 51.2887 61.7685 51.254 61.7328C51.2185 61.698 51.1907 61.6561 51.1723 61.6097C51.1538 61.5634 51.1453 61.5138 51.1471 61.4639V55.442H48.9056V56.48C48.9056 57.8244 48.8026 58.8834 48.5968 59.657C48.391 60.4305 48.0568 60.9884 47.5943 61.3308C47.1417 61.6741 46.5143 61.8458 45.7124 61.8458Z"/>
<path d="M62.7569 53.7789C62.8032 53.779 62.8489 53.7888 62.8912 53.8075C62.9335 53.8263 62.9716 53.8536 63.0029 53.8878C63.0374 53.9157 63.0651 53.9512 63.0838 53.9915C63.1026 54.0318 63.1119 54.0759 63.1111 54.1204V61.4666C63.1128 61.5166 63.104 61.5663 63.0853 61.6126C63.0667 61.6589 63.0386 61.7008 63.0029 61.7355C62.9697 61.7731 62.9283 61.8026 62.8819 61.8214C62.8355 61.8403 62.7854 61.8482 62.7356 61.8444H61.4243C61.3261 61.8444 61.232 61.8052 61.1625 61.7353C61.0931 61.6655 61.0541 61.5708 61.0541 61.472V56.5257L57.3958 61.5943C57.3512 61.6697 57.288 61.7321 57.2123 61.7757C57.1367 61.8193 57.0512 61.8425 56.964 61.8431H55.7758C55.7279 61.8482 55.6795 61.8424 55.6341 61.8262C55.5887 61.8101 55.5475 61.7839 55.5136 61.7495C55.4796 61.7152 55.4537 61.6737 55.4378 61.628C55.4218 61.5823 55.4163 61.5336 55.4216 61.4854V54.154C55.4179 54.104 55.4256 54.0537 55.4441 54.0071C55.4626 53.9605 55.4915 53.9188 55.5285 53.8851C55.5632 53.8494 55.6048 53.8213 55.6508 53.8025C55.6968 53.7838 55.7462 53.7748 55.7958 53.7762H57.1071C57.205 53.7762 57.299 53.8153 57.3684 53.8848C57.4378 53.9544 57.4769 54.0488 57.4773 54.1473V59.0923L61.1356 54.0236C61.1823 53.9503 61.246 53.8895 61.3212 53.8464C61.3964 53.8033 61.4809 53.7792 61.5673 53.7762L62.7569 53.7789Z"/>
<path d="M65.5812 61.8458C65.483 61.8458 65.3888 61.8065 65.3194 61.7367C65.25 61.6668 65.211 61.5721 65.211 61.4733V54.154C65.2071 54.1038 65.2149 54.0534 65.2337 54.0068C65.2524 53.9601 65.2817 53.9185 65.3192 53.8851C65.3538 53.8492 65.3954 53.8209 65.4414 53.8022C65.4875 53.7834 65.5369 53.7746 65.5866 53.7762H69.0123C70.0816 53.7762 70.8836 53.9725 71.4182 54.3651C71.6812 54.5474 71.8942 54.7936 72.0372 55.0808C72.1802 55.3681 72.2487 55.687 72.2362 56.008C72.2524 56.354 72.1723 56.6976 72.005 57.0003C71.8244 57.2618 71.5872 57.4787 71.3113 57.6349C71.6592 57.7899 71.9503 58.0503 72.144 58.3797C72.3511 58.7142 72.4582 59.1016 72.4528 59.4956C72.4528 60.2503 72.1748 60.8289 71.6187 61.2313C71.0627 61.6338 70.2487 61.8386 69.1767 61.8458H65.5812ZM68.9762 57.0715C69.3204 57.0892 69.6612 56.995 69.948 56.8026C70.0634 56.7187 70.1565 56.6075 70.219 56.4787C70.2814 56.35 70.3114 56.2077 70.3062 56.0645C70.3176 55.9318 70.2918 55.7984 70.2318 55.6796C70.1718 55.5608 70.08 55.4613 69.9667 55.3923C69.7408 55.2578 69.4106 55.1906 68.9789 55.1906H67.2012V57.0729L68.9762 57.0715ZM69.0538 60.4327C69.3983 60.4517 69.7411 60.371 70.0415 60.2001C70.158 60.1232 70.2521 60.0166 70.3143 59.8912C70.3766 59.7658 70.4046 59.6261 70.3957 59.4862C70.3957 59.1465 70.2826 58.9036 70.0562 58.7575C69.8299 58.6114 69.4957 58.5343 69.0538 58.5262H67.2012V60.4327H69.0538Z"/>
<path d="M76.7219 61.9977C76.2217 62.0029 75.7265 61.8968 75.2717 61.6871C74.8611 61.4887 74.5061 61.1907 74.2385 60.8199C73.9292 60.3686 73.8063 59.8141 73.8956 59.2733C73.9848 58.7326 74.2793 58.2478 74.717 57.9212C75.2828 57.4865 76.0594 57.1921 77.0467 57.0379L79.1599 56.7273V56.402C79.1599 55.9538 79.0472 55.6182 78.8218 55.395C78.5945 55.1678 78.235 55.0535 77.7404 55.0535C77.456 55.0404 77.1733 55.1049 76.9224 55.2404C76.738 55.3487 76.5671 55.4786 76.4132 55.6276L76.1672 55.875C76.1561 55.9282 76.127 55.9759 76.0848 56.01C76.0427 56.044 75.9901 56.0624 75.936 56.0618H74.733C74.6418 56.0625 74.5537 56.029 74.4858 55.9677C74.4545 55.935 74.4301 55.8961 74.4143 55.8536C74.3984 55.8111 74.3914 55.7657 74.3935 55.7203C74.4291 55.4004 74.5579 55.0983 74.7638 54.8518C75.0648 54.4797 75.4516 54.1871 75.8906 53.9994C76.4782 53.7343 77.1182 53.6074 77.7618 53.6283C78.9755 53.6283 79.8603 53.9022 80.4164 54.4498C80.9724 54.9975 81.25 55.7145 81.2491 56.601V61.468C81.2507 61.5179 81.2419 61.5676 81.2233 61.6139C81.2046 61.6603 81.1765 61.7021 81.1408 61.7369C81.1076 61.7745 81.0662 61.8039 81.0198 61.8228C80.9734 61.8417 80.9234 61.8495 80.8735 61.8458H79.593C79.4948 61.8458 79.4006 61.8065 79.3312 61.7367C79.2618 61.6668 79.2228 61.5721 79.2228 61.4733V60.8683C78.9759 61.2173 78.6472 61.4995 78.2657 61.6898C77.7817 61.9112 77.2533 62.0166 76.7219 61.9977ZM77.2472 60.5093C77.5046 60.5187 77.761 60.4739 78.0002 60.3778C78.2393 60.2817 78.4559 60.1365 78.636 59.9514C78.9924 59.5803 79.1706 59.0425 79.1706 58.338V58.0288L77.6268 58.2762C76.4444 58.4635 75.8531 58.8615 75.8531 59.4701C75.8481 59.623 75.8823 59.7746 75.9526 59.9102C76.0228 60.0459 76.1267 60.161 76.2541 60.2445C76.5529 60.4272 76.8977 60.5192 77.2472 60.5093Z"/>
<path d="M89.8128 53.7789C89.8614 53.7786 89.9096 53.7879 89.9546 53.8064C89.9996 53.8249 90.0405 53.8522 90.0749 53.8867C90.1093 53.9212 90.1366 53.9623 90.1552 54.0075C90.1737 54.0527 90.1832 54.1011 90.183 54.15V61.4666C90.1846 61.5164 90.1759 61.566 90.1575 61.6123C90.1391 61.6586 90.1114 61.7005 90.0761 61.7355C90.0427 61.7729 90.0013 61.8021 89.9549 61.821C89.9086 61.8399 89.8586 61.8479 89.8088 61.8444H88.4722C88.4234 61.8448 88.3751 61.8354 88.33 61.8168C88.285 61.7982 88.244 61.7708 88.2096 61.7361C88.1751 61.7015 88.1479 61.6603 88.1294 61.6149C88.1109 61.5696 88.1016 61.521 88.1019 61.472V59.1151H86.7265L85.2295 61.6105C85.193 61.6812 85.1377 61.7404 85.0697 61.7815C85.0018 61.8225 84.9238 61.8438 84.8446 61.8431H83.5173C83.4768 61.8433 83.4367 61.8352 83.3995 61.8192C83.3623 61.8032 83.3287 61.7798 83.3008 61.7503C83.2716 61.7221 83.2485 61.6883 83.2326 61.6508C83.2168 61.6134 83.2086 61.5732 83.2085 61.5325C83.2082 61.4411 83.241 61.3527 83.3008 61.2838L84.9208 58.7427C84.4688 58.5623 84.0855 58.2422 83.8261 57.8285C83.5711 57.3977 83.4423 56.9032 83.4545 56.402C83.4545 55.5352 83.7218 54.8845 84.2565 54.4498C84.7911 54.0151 85.5833 53.791 86.633 53.7776L89.8128 53.7789ZM88.1313 55.2713H86.6797C86.1977 55.2713 85.8479 55.3609 85.6305 55.5402C85.4131 55.7194 85.3053 56.0085 85.307 56.4074C85.2978 56.5715 85.3217 56.7358 85.3773 56.8904C85.4329 57.0449 85.519 57.1866 85.6305 57.3068C85.847 57.5237 86.166 57.6322 86.5875 57.6322H88.1313V55.2713Z"/>
<path d="M98.5275 61.8458C98.4293 61.8458 98.3352 61.8065 98.2657 61.7367C98.1963 61.6668 98.1573 61.5721 98.1573 61.4733V55.442H95.6565C95.6079 55.4422 95.5597 55.4327 95.5148 55.414C95.4699 55.3953 95.4291 55.3679 95.3948 55.3333C95.3604 55.2986 95.3333 55.2575 95.3149 55.2122C95.2965 55.167 95.2872 55.1185 95.2876 55.0696V54.154C95.2836 54.1039 95.2911 54.0536 95.3097 54.007C95.3282 53.9603 95.3573 53.9186 95.3945 53.8851C95.4291 53.8493 95.4708 53.8212 95.5168 53.8024C95.5628 53.7837 95.6122 53.7748 95.6618 53.7762H102.679C102.777 53.7762 102.871 53.8153 102.94 53.8848C103.01 53.9544 103.049 54.0488 103.049 54.1473V55.0629C103.051 55.1128 103.042 55.1626 103.024 55.2089C103.005 55.2552 102.977 55.2971 102.941 55.3318C102.908 55.3694 102.866 55.3988 102.82 55.4177C102.774 55.4366 102.724 55.4445 102.674 55.4407H100.178V61.4693C100.18 61.5191 100.171 61.5687 100.153 61.615C100.134 61.6613 100.107 61.7032 100.071 61.7382C100.038 61.7757 99.9966 61.805 99.9502 61.8238C99.9039 61.8427 99.8539 61.8507 99.804 61.8471L98.5275 61.8458Z"/>
<path d="M107.915 61.9977C106.762 61.9977 105.847 61.6669 105.168 61.0055C104.489 60.344 104.132 59.4028 104.099 58.1821L104.084 57.7949C104.084 56.5024 104.418 55.4846 105.086 54.7416C105.755 53.9985 106.69 53.6265 107.893 53.6256C109.118 53.6256 110.059 53.9976 110.718 54.7416C111.376 55.4855 111.71 56.4773 111.72 57.7169V58.0422C111.722 58.0921 111.713 58.1417 111.694 58.1879C111.676 58.2342 111.648 58.2761 111.613 58.3111C111.576 58.3473 111.533 58.3756 111.485 58.3943C111.437 58.413 111.386 58.4218 111.335 58.42H106.217V58.5437C106.217 59.061 106.379 59.5652 106.68 59.985C106.825 60.1677 107.011 60.3134 107.223 60.4104C107.435 60.5073 107.666 60.5527 107.899 60.543C108.177 60.5487 108.454 60.4868 108.704 60.3626C108.954 60.2383 109.17 60.0553 109.335 59.829C109.392 59.7464 109.466 59.6775 109.552 59.6274C109.636 59.5893 109.728 59.5735 109.819 59.5817H111.177C111.261 59.5787 111.343 59.6059 111.409 59.6583C111.443 59.6826 111.471 59.7152 111.49 59.7533C111.509 59.7914 111.518 59.8336 111.517 59.8761C111.517 60.1235 111.368 60.4139 111.069 60.7594C110.719 61.1347 110.292 61.4303 109.819 61.6266C109.218 61.8865 108.569 62.013 107.915 61.9977ZM109.603 57.0998V57.0688C109.603 56.4593 109.449 55.9735 109.14 55.6114C108.985 55.436 108.795 55.2955 108.583 55.1994C108.37 55.1032 108.139 55.0535 107.906 55.0535C107.673 55.0535 107.442 55.1032 107.229 55.1994C107.017 55.2955 106.826 55.436 106.672 55.6114C106.372 55.97 106.223 56.4558 106.224 57.0688V57.0998H109.603Z"/>
<path d="M113.178 61.8458C113.088 61.8465 113 61.8134 112.932 61.753C112.872 61.6844 112.839 61.5959 112.839 61.5043C112.839 61.4066 112.872 61.3119 112.932 61.2354L115.571 57.7021L113.133 54.3853C113.073 54.3087 113.04 54.214 113.039 54.1164C113.038 54.0732 113.046 54.0303 113.062 53.9903C113.078 53.9503 113.102 53.914 113.133 53.8838C113.164 53.8496 113.203 53.8223 113.245 53.8036C113.288 53.7848 113.334 53.7751 113.38 53.7749H114.737C114.781 53.7707 114.826 53.7754 114.868 53.7888C114.911 53.8022 114.95 53.824 114.984 53.8529C115.057 53.903 115.119 53.9658 115.17 54.0384L116.898 56.3482L118.612 54.0478C118.621 54.0371 118.657 53.9913 118.719 53.9134C118.76 53.8702 118.811 53.8367 118.867 53.8154C118.923 53.794 118.983 53.7852 119.043 53.7897H120.355C120.399 53.789 120.443 53.7984 120.483 53.8173C120.523 53.8362 120.558 53.864 120.586 53.8986C120.615 53.9264 120.638 53.96 120.654 53.9972C120.67 54.0344 120.678 54.0745 120.678 54.115C120.679 54.2159 120.646 54.3143 120.586 54.3947L118.117 57.7196L120.772 61.2381C120.831 61.3147 120.864 61.4094 120.864 61.5069C120.864 61.5536 120.854 61.5998 120.835 61.6426C120.817 61.6853 120.789 61.7238 120.756 61.7557C120.725 61.7862 120.689 61.8101 120.649 61.8261C120.61 61.842 120.567 61.8496 120.524 61.8484H119.105C119.02 61.8461 118.937 61.822 118.864 61.7785C118.791 61.735 118.73 61.6734 118.688 61.5997L116.837 59.1514L114.965 61.5997C114.922 61.6729 114.861 61.7339 114.788 61.777C114.715 61.82 114.633 61.8437 114.548 61.8458H113.178Z"/>
<path d="M122.768 61.8458C122.67 61.8458 122.576 61.8065 122.507 61.7367C122.437 61.6668 122.398 61.5721 122.398 61.4733V54.154C122.394 54.1038 122.402 54.0534 122.421 54.0068C122.44 53.9601 122.469 53.9185 122.506 53.8851C122.541 53.8492 122.583 53.8209 122.629 53.8022C122.675 53.7834 122.724 53.7746 122.774 53.7762H124.086C124.136 53.7748 124.185 53.7837 124.231 53.8024C124.277 53.8212 124.319 53.8493 124.354 53.8851C124.39 53.9198 124.418 53.9616 124.436 54.0079C124.455 54.0543 124.464 54.1041 124.462 54.154V56.9142H127.902V54.154C127.902 54.0566 127.939 53.9628 128.006 53.8927C128.073 53.8226 128.165 53.7817 128.262 53.7789H129.575C129.672 53.7789 129.766 53.818 129.836 53.8875C129.905 53.9571 129.944 54.0515 129.945 54.15V61.4666C129.946 61.5166 129.938 61.5663 129.919 61.6126C129.9 61.6589 129.872 61.7008 129.837 61.7355C129.803 61.7731 129.762 61.8024 129.715 61.8213C129.669 61.8402 129.619 61.8481 129.569 61.8444H128.262C128.164 61.8444 128.07 61.8052 128 61.7353C127.931 61.6655 127.892 61.5708 127.892 61.472V58.572H124.451V61.4706C124.451 61.5694 124.412 61.6641 124.343 61.734C124.273 61.8038 124.179 61.8431 124.081 61.8431L122.768 61.8458Z"/>
<path d="M139.514 53.7789C139.56 53.7792 139.606 53.789 139.648 53.8077C139.69 53.8265 139.728 53.8537 139.76 53.8878C139.794 53.9157 139.822 53.9512 139.841 53.9915C139.859 54.0318 139.869 54.0759 139.868 54.1204V61.4666C139.869 61.5166 139.861 61.5663 139.842 61.6126C139.823 61.6589 139.795 61.7008 139.76 61.7355C139.726 61.7731 139.685 61.8026 139.639 61.8214C139.592 61.8403 139.542 61.8482 139.492 61.8444H138.18C138.081 61.8444 137.987 61.8052 137.918 61.7353C137.848 61.6655 137.809 61.5708 137.809 61.472V56.5257L134.152 61.5943C134.108 61.6697 134.045 61.7321 133.969 61.7757C133.893 61.8193 133.808 61.8425 133.721 61.8431H132.532C132.485 61.8481 132.436 61.8424 132.391 61.8262C132.345 61.81 132.304 61.7838 132.27 61.7496C132.236 61.7153 132.21 61.6738 132.194 61.6281C132.178 61.5824 132.172 61.5336 132.177 61.4854V54.154C132.173 54.1038 132.181 54.0534 132.2 54.0068C132.218 53.9601 132.248 53.9185 132.285 53.8851C132.32 53.8493 132.361 53.8212 132.407 53.8024C132.453 53.7837 132.503 53.7748 132.553 53.7762H133.865C133.963 53.7762 134.057 53.8153 134.126 53.8848C134.196 53.9544 134.235 54.0488 134.235 54.1473V59.0923L137.892 54.0236C137.939 53.9503 138.003 53.8895 138.078 53.8464C138.153 53.8033 138.238 53.7792 138.324 53.7762L139.514 53.7789Z"/>
<path d="M149.39 61.3617C149.436 61.4194 149.463 61.4898 149.467 61.5634C149.469 61.6019 149.461 61.6402 149.445 61.6752C149.429 61.7102 149.405 61.7409 149.375 61.7651C149.309 61.8178 149.227 61.8454 149.143 61.8431H147.553C147.468 61.8465 147.384 61.8304 147.306 61.796C147.235 61.7447 147.173 61.682 147.122 61.6105L145.117 58.5881H143.99V61.4706C143.992 61.5206 143.983 61.5703 143.964 61.6166C143.946 61.6629 143.917 61.7048 143.882 61.7395C143.848 61.7772 143.807 61.8066 143.761 61.8255C143.714 61.8444 143.664 61.8522 143.614 61.8484H142.334C142.285 61.8488 142.237 61.8394 142.192 61.8208C142.147 61.8022 142.106 61.7748 142.071 61.7402C142.037 61.7055 142.01 61.6643 141.991 61.619C141.973 61.5736 141.963 61.525 141.964 61.476V54.154C141.96 54.1039 141.967 54.0536 141.986 54.007C142.004 53.9603 142.033 53.9186 142.071 53.8851C142.105 53.8493 142.147 53.8211 142.193 53.8023C142.239 53.7836 142.288 53.7747 142.338 53.7762H143.618C143.716 53.7762 143.81 53.8153 143.88 53.8848C143.949 53.9544 143.988 54.0488 143.989 54.1473V56.9075H145.13L146.967 54.0236C147.018 53.9523 147.081 53.8896 147.152 53.8381C147.221 53.7943 147.302 53.7727 147.384 53.7762H148.803C148.892 53.7714 148.98 53.7991 149.05 53.8542C149.08 53.8783 149.104 53.9091 149.12 53.9441C149.136 53.9791 149.144 54.0174 149.143 54.0559C149.128 54.1268 149.103 54.195 149.066 54.2575L146.874 57.6779L149.39 61.3617Z"/>
<path d="M153.298 61.9977C152.798 62.0031 152.303 61.8971 151.848 61.6871C151.437 61.4891 151.081 61.191 150.813 60.8199C150.505 60.3684 150.382 59.8141 150.471 59.2735C150.561 58.733 150.855 58.2482 151.292 57.9212C151.858 57.4865 152.634 57.1921 153.622 57.0379L155.736 56.7273V56.402C155.736 55.9538 155.623 55.6182 155.397 55.395C155.171 55.1678 154.81 55.0535 154.317 55.0535C154.032 55.04 153.749 55.1046 153.499 55.2404C153.314 55.348 153.143 55.478 152.989 55.6276L152.742 55.875C152.732 55.9293 152.703 55.9781 152.66 56.0128C152.617 56.0475 152.563 56.0658 152.508 56.0645H151.305C151.214 56.065 151.126 56.0314 151.058 55.9704C151.027 55.9376 151.003 55.8987 150.987 55.8561C150.972 55.8136 150.965 55.7683 150.967 55.723C150.976 55.4649 151.101 55.1758 151.337 54.8545C151.638 54.4821 152.024 54.1894 152.463 54.0021C153.05 53.7371 153.69 53.6102 154.334 53.631C155.548 53.631 156.433 53.9049 156.989 54.4525C157.545 55.0001 157.823 55.7172 157.823 56.6037V61.4706C157.824 61.5206 157.815 61.5703 157.797 61.6166C157.778 61.6629 157.75 61.7048 157.714 61.7395C157.681 61.777 157.64 61.8063 157.593 61.8252C157.547 61.8441 157.497 61.852 157.447 61.8484H156.167C156.068 61.8484 155.974 61.8092 155.905 61.7394C155.835 61.6695 155.796 61.5748 155.796 61.476V60.871C155.549 61.22 155.221 61.5022 154.839 61.6925C154.356 61.9127 153.828 62.0172 153.298 61.9977ZM153.822 60.5093C154.079 60.5187 154.336 60.4739 154.575 60.3778C154.814 60.2817 155.031 60.1365 155.211 59.9514C155.567 59.5803 155.746 59.0425 155.746 58.338V58.0288L154.202 58.2762C153.018 58.4635 152.427 58.8615 152.427 59.4701C152.422 59.623 152.456 59.7746 152.526 59.9102C152.596 60.0459 152.7 60.161 152.828 60.2445C153.127 60.4273 153.472 60.5193 153.822 60.5093Z"/>
</mask>
<path d="M37.8424 0V44.7158H23.9255L22.8749 42.8524C20.6481 44.5289 17.5565 45.3356 13.6001 45.3356C9.89098 45.3356 6.6831 44.4671 4.01921 42.6655C1.29786 40.872 0 37.6977 0 33.1023V25.6485C0 21.0531 1.17489 17.8237 3.64763 15.8984C6.12172 14.035 9.15183 13.0414 12.8609 13.0414C15.8296 13.0414 18.6084 13.8481 21.271 15.3404V0H37.8424ZM17.376 37.0147C17.8719 37.4489 18.4895 37.6345 19.2941 37.6345C19.9731 37.6345 20.8392 37.4489 21.8337 36.9515V22.7928C20.7831 22.5441 19.8555 22.3572 19.0522 22.3572C18.4201 22.3624 17.8081 22.5812 17.3146 22.9784C16.82 23.414 16.6342 24.0338 16.6342 24.8418V35.0907C16.6329 35.9579 16.8802 36.5791 17.376 37.0147Z" fill="#383839"/>
<path d="M119.16 33.4935C119.16 36.536 118.478 38.8969 117.18 40.5722C115.819 42.2501 113.903 43.4292 111.299 44.0503C108.702 44.7346 105.302 45.0452 101.097 45.0452C96.5213 45.0452 92.9966 44.8583 90.461 44.3609C87.864 43.8648 85.823 42.7475 84.3393 40.9459C82.7929 39.1443 82.051 36.3505 82.051 32.5618V24.6119C82.051 20.8232 82.7929 18.024 84.3393 16.2278C85.823 14.4894 87.864 13.3708 90.3996 12.8747C92.9351 12.3786 96.5213 12.1298 101.093 12.1298C105.606 12.1298 109.192 12.4404 111.785 13.0602C114.379 13.68 116.238 14.6736 117.413 16.0423C118.526 17.4701 119.15 19.4572 119.15 21.9418V24.5501H103.206V22.7485C103.206 21.8181 102.958 21.1351 102.587 20.6377C102.381 20.3966 102.124 20.205 101.834 20.0771C101.545 19.9491 101.231 19.888 100.915 19.8982C100.173 19.8982 99.6169 20.1465 99.2453 20.643C98.8751 21.1391 98.6893 21.8853 98.6893 22.8171V34.12C98.6893 36.1072 99.4311 37.0389 100.915 37.0389C101.595 37.0389 102.151 36.852 102.584 36.3559C102.956 35.8584 103.203 35.1136 103.203 34.12V31.3262H119.16V33.4935Z" fill="#383839"/>
<path d="M124.14 16.2278C125.623 14.4889 127.664 13.3712 130.262 12.8747C132.801 12.3772 136.32 12.1298 140.897 12.1298C145.474 12.1298 148.997 12.3772 151.59 12.8747C154.126 13.3703 156.167 14.488 157.712 16.2278C159.195 18.0294 160 20.8232 160 24.6119V32.5618C160 36.3505 159.198 39.1497 157.712 40.9459C156.165 42.7462 154.126 43.8648 151.59 44.3609C148.993 44.8583 145.468 45.0452 140.897 45.0452C136.326 45.0452 132.797 44.8583 130.262 44.3609C127.664 43.8648 125.623 42.7475 124.14 40.9459C122.593 39.1443 121.852 36.3505 121.852 32.5618V24.6119C121.852 20.8232 122.593 18.0294 124.14 16.2278ZM138.486 34.1093C138.486 36.0964 139.288 37.0281 140.892 37.0281C142.496 37.0281 143.364 36.0964 143.364 34.1093V22.6813C143.364 20.8178 142.5 19.8243 140.892 19.8243C140.09 19.8243 139.47 20.073 139.098 20.5704C138.665 21.0665 138.48 21.8127 138.48 22.6813L138.486 34.1093Z" fill="#383839"/>
<path d="M79.1279 34.9845V13.2484H61.9777V35.1633C61.9777 35.9082 61.7932 36.4043 61.4217 36.7149C61.0501 37.0886 60.5555 37.2123 60.061 37.2123C59.5664 37.2123 59.0719 37.0886 58.7016 36.7149C58.3301 36.4043 58.1443 35.9082 58.1443 35.1633V13.2484H41.0516V34.9845C41.0516 38.5868 42.0411 41.1333 44.0202 42.6238C45.9984 44.1767 48.4712 44.9215 51.4398 44.9215H68.745C71.7123 44.9215 74.1864 44.1767 76.1646 42.6238C78.1401 41.1333 79.1279 38.5868 79.1279 34.9845Z" fill="#383839"/>
<path d="M4.59931 61.9977C3.77595 61.9977 3.10764 61.8735 2.59438 61.6253C2.15551 61.4306 1.77323 61.1266 1.48365 60.7419C1.27057 60.4303 1.13741 60.0705 1.09603 59.6946V59.6798C1.09552 59.645 1.10215 59.6104 1.11548 59.5783C1.12882 59.5461 1.14858 59.5171 1.17355 59.4929C1.23388 59.4424 1.31022 59.4152 1.38875 59.4163H2.67324C2.75956 59.4137 2.84456 59.4381 2.91642 59.4863C2.98828 59.5345 3.04344 59.604 3.07422 59.6852C3.11472 59.8225 3.18317 59.9498 3.27521 60.059C3.36725 60.1683 3.48088 60.2571 3.60887 60.3198C3.9483 60.4565 4.31293 60.5184 4.67817 60.5013C5.05303 60.5183 5.42468 60.4249 5.74746 60.2324C5.88146 60.1508 5.99098 60.0342 6.06441 59.895C6.13783 59.7558 6.17242 59.5992 6.16449 59.4418C6.16449 58.749 5.74791 58.4026 4.91475 58.4026H4.05931C4.014 58.4047 3.96873 58.3976 3.92623 58.3817C3.88372 58.3657 3.84488 58.3413 3.81204 58.3098C3.75205 58.2416 3.71921 58.1535 3.71981 58.0624V57.3902C3.71861 57.3471 3.72618 57.3043 3.74204 57.2643C3.7579 57.2243 3.78172 57.188 3.81204 57.1576C3.84243 57.1219 3.88049 57.0937 3.92334 57.0751C3.96618 57.0565 4.01268 57.0479 4.05931 57.05H4.84658C5.21682 57.05 5.49484 56.9814 5.6793 56.8483C5.7758 56.7669 5.85144 56.6633 5.89982 56.5463C5.9482 56.4293 5.96792 56.3024 5.95731 56.1761C5.95811 56.0357 5.92768 55.8969 5.86824 55.7699C5.8088 55.6429 5.72186 55.5309 5.6138 55.442C5.39727 55.2439 5.05777 55.1454 4.5953 55.1462C4.13283 55.1471 3.79333 55.2197 3.57679 55.3641C3.35132 55.5403 3.19013 55.7865 3.11833 56.0645C3.0863 56.1443 3.03065 56.2123 2.95891 56.2592C2.88718 56.3061 2.80285 56.3296 2.71735 56.3267H1.48231C1.40334 56.328 1.32652 56.3008 1.26578 56.2501C1.23768 56.2252 1.21596 56.1939 1.20246 56.1588C1.18897 56.1237 1.18409 56.0858 1.18825 56.0484C1.21001 55.6331 1.34353 55.2316 1.57454 54.8868C1.85747 54.4853 2.24834 54.1733 2.70131 53.9873C3.20566 53.7498 3.83832 53.631 4.59931 53.631C5.74078 53.631 6.57929 53.8529 7.11482 54.2965C7.65036 54.7402 7.92303 55.278 7.93283 55.9099C7.94514 56.2606 7.86538 56.6084 7.7016 56.9183C7.52956 57.2126 7.27013 57.4454 6.95978 57.5838C7.78313 57.8948 8.19481 58.5715 8.19481 59.6139C8.20252 59.9688 8.11606 60.3193 7.94432 60.6293C7.77258 60.9394 7.52178 61.1978 7.21774 61.3779C6.57349 61.7911 5.70068 61.9977 4.59931 61.9977Z" fill="#383839"/>
<path d="M12.2715 61.9977C11.7731 62.002 11.2798 61.8959 10.8266 61.6871C10.4161 61.4887 10.061 61.1907 9.79341 60.8199C9.48482 60.3684 9.36226 59.8141 9.45149 59.2735C9.54073 58.733 9.8348 58.2482 10.2719 57.9212C10.8378 57.4865 11.6143 57.1921 12.6016 57.0379L14.7162 56.7273V56.402C14.7162 55.9538 14.603 55.6182 14.3767 55.395C14.1503 55.1718 13.7903 55.058 13.2967 55.0535C13.0122 55.04 12.7295 55.1046 12.4787 55.2404C12.2938 55.348 12.1228 55.478 11.9694 55.6276L11.7221 55.875C11.7114 55.9298 11.6815 55.9791 11.6379 56.0138C11.5943 56.0486 11.5398 56.0665 11.4842 56.0645H10.2813C10.1904 56.0654 10.1026 56.0318 10.0353 55.9704C10.0036 55.9379 9.97887 55.8992 9.96277 55.8566C9.94666 55.814 9.93951 55.7685 9.94177 55.723C9.97696 55.4033 10.1053 55.1011 10.3107 54.8545C10.6117 54.4824 10.9985 54.1898 11.4374 54.0021C12.0251 53.737 12.665 53.6101 13.3087 53.631C14.5224 53.631 15.4072 53.9049 15.9632 54.4525C16.5193 55.0001 16.7973 55.7172 16.7973 56.6037V61.4706C16.7989 61.5206 16.7901 61.5703 16.7715 61.6166C16.7528 61.6629 16.7247 61.7048 16.689 61.7395C16.6557 61.777 16.6143 61.8063 16.5679 61.8252C16.5216 61.8441 16.4716 61.852 16.4217 61.8484H15.1412C15.043 61.8484 14.9489 61.8092 14.8794 61.7394C14.81 61.6695 14.771 61.5748 14.771 61.476V60.871C14.5241 61.22 14.1954 61.5022 13.814 61.6925C13.3302 61.9128 12.8022 62.0172 12.2715 61.9977ZM12.7955 60.5093C13.0528 60.5187 13.3092 60.4739 13.5484 60.3778C13.7875 60.2817 14.0041 60.1365 14.1842 59.9514C14.5406 59.5803 14.7189 59.0425 14.7189 58.338V58.0288L13.1764 58.2762C11.993 58.4635 11.4014 58.8615 11.4014 59.4701C11.3963 59.623 11.4305 59.7746 11.5008 59.9102C11.571 60.0459 11.6749 60.161 11.8023 60.2445C12.1011 60.4272 12.446 60.5192 12.7955 60.5093Z" fill="#383839"/>
<path d="M26.4263 57.6268C26.4463 57.854 26.457 58.0301 26.457 58.1646C26.4552 58.325 26.4449 58.4852 26.4263 58.6446C26.3755 59.6771 26.0191 60.4932 25.357 61.0928C24.6949 61.6925 23.7642 61.9923 22.5648 61.9923C21.2888 61.9923 20.3371 61.6616 19.7098 61.0001C19.0825 60.3386 18.743 59.3468 18.6913 58.0248L18.6752 57.0944L18.6913 56.164C18.7216 54.6976 18.9479 53.5974 19.3703 52.8633C19.7836 52.136 20.4316 51.5724 21.2068 51.2661C22.0088 50.9255 23.3102 50.5378 25.1111 50.1031L25.2033 50.0883C25.2438 50.0882 25.2838 50.0964 25.321 50.1123C25.3583 50.1283 25.3919 50.1517 25.4198 50.1811C25.4532 50.2042 25.4815 50.234 25.5026 50.2688C25.5238 50.3035 25.5375 50.3424 25.5428 50.3828L25.7433 51.4221L25.7593 51.5148C25.76 51.594 25.7325 51.6707 25.6818 51.7313C25.63 51.7932 25.5597 51.8366 25.4813 51.855C25.2755 51.8967 25.1204 51.933 25.0175 51.9639C24.1131 52.1412 23.2203 52.3742 22.3443 52.6617C21.8627 52.8164 21.4417 53.1198 21.1413 53.5288C20.8646 53.912 20.7042 54.5009 20.6641 55.2968C20.9254 54.9752 21.2583 54.72 21.6359 54.552C22.0434 54.3673 22.4854 54.2724 22.9324 54.2737C24.0124 54.2737 24.8509 54.5735 25.4479 55.1731C26.0449 55.7728 26.3711 56.5907 26.4263 57.6268ZM24.2971 58.5679C24.3093 58.4339 24.3142 58.2992 24.3118 58.1646C24.3118 57.9468 24.3118 57.7922 24.2971 57.6994C24.2757 57.0585 24.1211 56.5678 23.8333 56.2272C23.6933 56.0571 23.5157 55.9222 23.3148 55.8332C23.1138 55.7443 22.895 55.7038 22.6757 55.715C22.4302 55.7035 22.1851 55.7445 21.9566 55.8354C21.728 55.9262 21.5212 56.0648 21.3498 56.242C21.0192 56.5835 20.8441 57.0693 20.8245 57.6994L20.8085 58.1646L20.8245 58.5679C20.8446 59.22 21.005 59.7148 21.303 60.0563C21.6011 60.3978 22.0235 60.5524 22.5688 60.5524C23.1142 60.5524 23.5298 60.387 23.8186 60.0563C24.1073 59.7255 24.2757 59.224 24.2971 58.572V58.5679Z" fill="#383839"/>
<path d="M31.869 61.9977C30.6545 61.9977 29.7188 61.6876 29.0621 61.0673C28.4054 60.4471 28.049 59.5893 27.9928 58.494L27.9768 57.8123L27.9928 57.1307C28.0436 56.0461 28.4036 55.1946 29.0728 54.5762C29.742 53.9577 30.6732 53.644 31.8663 53.6351C33.0488 53.6351 33.9746 53.9488 34.6438 54.5762C35.313 55.2036 35.673 56.0551 35.7238 57.1307C35.7345 57.2544 35.7399 57.4816 35.7399 57.8123C35.7399 58.1431 35.7345 58.3703 35.7238 58.494C35.673 59.5902 35.3166 60.4479 34.6545 61.0673C33.9924 61.6867 33.0639 61.9968 31.869 61.9977ZM31.869 60.4327C32.4143 60.4327 32.8309 60.262 33.1187 59.9205C33.4066 59.579 33.5661 59.0779 33.5973 58.4173C33.608 58.3138 33.612 58.1122 33.612 57.8123C33.612 57.5125 33.612 57.3122 33.5973 57.2087C33.5759 56.5472 33.4164 56.0457 33.1187 55.7042C32.8211 55.3627 32.4045 55.1875 31.869 55.1785C31.3237 55.1785 30.9017 55.3537 30.6032 55.7042C30.3047 56.0547 30.1452 56.5562 30.1247 57.2087L30.11 57.8123L30.1247 58.4173C30.1452 59.0788 30.3047 59.5799 30.6032 59.9205C30.9017 60.2611 31.3237 60.4318 31.869 60.4327Z" fill="#383839"/>
<path d="M40.0438 61.8458C39.9456 61.8458 39.8514 61.8065 39.782 61.7367C39.7125 61.6668 39.6735 61.5721 39.6735 61.4733V55.442H37.174C37.0759 55.442 36.9817 55.4028 36.9123 55.333C36.8428 55.2631 36.8038 55.1684 36.8038 55.0696V54.154C36.7999 54.1038 36.8077 54.0534 36.8265 54.0068C36.8453 53.9601 36.8746 53.9185 36.9121 53.8851C36.9465 53.8491 36.9882 53.8208 37.0342 53.8021C37.0803 53.7833 37.1297 53.7745 37.1794 53.7762H44.2007C44.2986 53.7762 44.3926 53.8153 44.462 53.8848C44.5314 53.9544 44.5705 54.0488 44.5709 54.1473V55.0629C44.5725 55.1128 44.5637 55.1626 44.5451 55.2089C44.5264 55.2552 44.4984 55.2971 44.4626 55.3318C44.4294 55.3694 44.388 55.3988 44.3416 55.4177C44.2953 55.4366 44.2452 55.4445 44.1953 55.4407H41.7025V61.4693C41.7041 61.5192 41.6954 61.569 41.6767 61.6153C41.6581 61.6616 41.63 61.7035 41.5942 61.7382C41.561 61.7758 41.5196 61.8051 41.4732 61.824C41.4269 61.8429 41.3768 61.8508 41.3269 61.8471L40.0438 61.8458Z" fill="#383839"/>
<path d="M45.7124 61.8458C45.6613 61.8478 45.6103 61.8393 45.5626 61.8205C45.515 61.8018 45.4717 61.7734 45.4356 61.737C45.3994 61.7006 45.3711 61.6571 45.3525 61.6092C45.3339 61.5612 45.3254 61.51 45.3274 61.4585V60.4663C45.3254 60.4208 45.3325 60.3752 45.3483 60.3325C45.3642 60.2898 45.3884 60.2507 45.4197 60.2176C45.4951 60.1539 45.5887 60.1158 45.687 60.1087C46.1396 60.0791 46.464 59.7654 46.66 59.1676C46.8561 58.5697 46.9536 57.5986 46.9528 56.2541V54.154C46.9489 54.1038 46.9567 54.0534 46.9754 54.0068C46.9942 53.9601 47.0235 53.9185 47.061 53.8851C47.0955 53.8492 47.1372 53.8209 47.1832 53.8022C47.2293 53.7834 47.2787 53.7746 47.3283 53.7762H52.8379C52.9359 53.7762 53.0298 53.8153 53.0992 53.8848C53.1686 53.9544 53.2078 54.0488 53.2081 54.1473V61.4639C53.2098 61.5139 53.201 61.5636 53.1823 61.6099C53.1637 61.6562 53.1356 61.6981 53.0999 61.7328C53.0667 61.7705 53.0253 61.7999 52.9789 61.8188C52.9325 61.8376 52.8824 61.8455 52.8325 61.8417H51.5213C51.4717 61.8431 51.4223 61.8342 51.3763 61.8154C51.3303 61.7967 51.2887 61.7685 51.254 61.7328C51.2185 61.698 51.1907 61.6561 51.1723 61.6097C51.1538 61.5634 51.1453 61.5138 51.1471 61.4639V55.442H48.9056V56.48C48.9056 57.8244 48.8026 58.8834 48.5968 59.657C48.391 60.4305 48.0568 60.9884 47.5943 61.3308C47.1417 61.6741 46.5143 61.8458 45.7124 61.8458Z" fill="#383839"/>
<path d="M62.7569 53.7789C62.8032 53.779 62.8489 53.7888 62.8912 53.8075C62.9335 53.8263 62.9716 53.8536 63.0029 53.8878C63.0374 53.9157 63.0651 53.9512 63.0838 53.9915C63.1026 54.0318 63.1119 54.0759 63.1111 54.1204V61.4666C63.1128 61.5166 63.104 61.5663 63.0853 61.6126C63.0667 61.6589 63.0386 61.7008 63.0029 61.7355C62.9697 61.7731 62.9283 61.8026 62.8819 61.8214C62.8355 61.8403 62.7854 61.8482 62.7356 61.8444H61.4243C61.3261 61.8444 61.232 61.8052 61.1625 61.7353C61.0931 61.6655 61.0541 61.5708 61.0541 61.472V56.5257L57.3958 61.5943C57.3512 61.6697 57.288 61.7321 57.2123 61.7757C57.1367 61.8193 57.0512 61.8425 56.964 61.8431H55.7758C55.7279 61.8482 55.6795 61.8424 55.6341 61.8262C55.5887 61.8101 55.5475 61.7839 55.5136 61.7495C55.4796 61.7152 55.4537 61.6737 55.4378 61.628C55.4218 61.5823 55.4163 61.5336 55.4216 61.4854V54.154C55.4179 54.104 55.4256 54.0537 55.4441 54.0071C55.4626 53.9605 55.4915 53.9188 55.5285 53.8851C55.5632 53.8494 55.6048 53.8213 55.6508 53.8025C55.6968 53.7838 55.7462 53.7748 55.7958 53.7762H57.1071C57.205 53.7762 57.299 53.8153 57.3684 53.8848C57.4378 53.9544 57.4769 54.0488 57.4773 54.1473V59.0923L61.1356 54.0236C61.1823 53.9503 61.246 53.8895 61.3212 53.8464C61.3964 53.8033 61.4809 53.7792 61.5673 53.7762L62.7569 53.7789Z" fill="#383839"/>
<path d="M65.5812 61.8458C65.483 61.8458 65.3888 61.8065 65.3194 61.7367C65.25 61.6668 65.211 61.5721 65.211 61.4733V54.154C65.2071 54.1038 65.2149 54.0534 65.2337 54.0068C65.2524 53.9601 65.2817 53.9185 65.3192 53.8851C65.3538 53.8492 65.3954 53.8209 65.4414 53.8022C65.4875 53.7834 65.5369 53.7746 65.5866 53.7762H69.0123C70.0816 53.7762 70.8836 53.9725 71.4182 54.3651C71.6812 54.5474 71.8942 54.7936 72.0372 55.0808C72.1802 55.3681 72.2487 55.687 72.2362 56.008C72.2524 56.354 72.1723 56.6976 72.005 57.0003C71.8244 57.2618 71.5872 57.4787 71.3113 57.6349C71.6592 57.7899 71.9503 58.0503 72.144 58.3797C72.3511 58.7142 72.4582 59.1016 72.4528 59.4956C72.4528 60.2503 72.1748 60.8289 71.6187 61.2313C71.0627 61.6338 70.2487 61.8386 69.1767 61.8458H65.5812ZM68.9762 57.0715C69.3204 57.0892 69.6612 56.995 69.948 56.8026C70.0634 56.7187 70.1565 56.6075 70.219 56.4787C70.2814 56.35 70.3114 56.2077 70.3062 56.0645C70.3176 55.9318 70.2918 55.7984 70.2318 55.6796C70.1718 55.5608 70.08 55.4613 69.9667 55.3923C69.7408 55.2578 69.4106 55.1906 68.9789 55.1906H67.2012V57.0729L68.9762 57.0715ZM69.0538 60.4327C69.3983 60.4517 69.7411 60.371 70.0415 60.2001C70.158 60.1232 70.2521 60.0166 70.3143 59.8912C70.3766 59.7658 70.4046 59.6261 70.3957 59.4862C70.3957 59.1465 70.2826 58.9036 70.0562 58.7575C69.8299 58.6114 69.4957 58.5343 69.0538 58.5262H67.2012V60.4327H69.0538Z" fill="#383839"/>
<path d="M76.7219 61.9977C76.2217 62.0029 75.7265 61.8968 75.2717 61.6871C74.8611 61.4887 74.5061 61.1907 74.2385 60.8199C73.9292 60.3686 73.8063 59.8141 73.8956 59.2733C73.9848 58.7326 74.2793 58.2478 74.717 57.9212C75.2828 57.4865 76.0594 57.1921 77.0467 57.0379L79.1599 56.7273V56.402C79.1599 55.9538 79.0472 55.6182 78.8218 55.395C78.5945 55.1678 78.235 55.0535 77.7404 55.0535C77.456 55.0404 77.1733 55.1049 76.9224 55.2404C76.738 55.3487 76.5671 55.4786 76.4132 55.6276L76.1672 55.875C76.1561 55.9282 76.127 55.9759 76.0848 56.01C76.0427 56.044 75.9901 56.0624 75.936 56.0618H74.733C74.6418 56.0625 74.5537 56.029 74.4858 55.9677C74.4545 55.935 74.4301 55.8961 74.4143 55.8536C74.3984 55.8111 74.3914 55.7657 74.3935 55.7203C74.4291 55.4004 74.5579 55.0983 74.7638 54.8518C75.0648 54.4797 75.4516 54.1871 75.8906 53.9994C76.4782 53.7343 77.1182 53.6074 77.7618 53.6283C78.9755 53.6283 79.8603 53.9022 80.4164 54.4498C80.9724 54.9975 81.25 55.7145 81.2491 56.601V61.468C81.2507 61.5179 81.2419 61.5676 81.2233 61.6139C81.2046 61.6603 81.1765 61.7021 81.1408 61.7369C81.1076 61.7745 81.0662 61.8039 81.0198 61.8228C80.9734 61.8417 80.9234 61.8495 80.8735 61.8458H79.593C79.4948 61.8458 79.4006 61.8065 79.3312 61.7367C79.2618 61.6668 79.2228 61.5721 79.2228 61.4733V60.8683C78.9759 61.2173 78.6472 61.4995 78.2657 61.6898C77.7817 61.9112 77.2533 62.0166 76.7219 61.9977ZM77.2472 60.5093C77.5046 60.5187 77.761 60.4739 78.0002 60.3778C78.2393 60.2817 78.4559 60.1365 78.636 59.9514C78.9924 59.5803 79.1706 59.0425 79.1706 58.338V58.0288L77.6268 58.2762C76.4444 58.4635 75.8531 58.8615 75.8531 59.4701C75.8481 59.623 75.8823 59.7746 75.9526 59.9102C76.0228 60.0459 76.1267 60.161 76.2541 60.2445C76.5529 60.4272 76.8977 60.5192 77.2472 60.5093Z" fill="#383839"/>
<path d="M89.8128 53.7789C89.8614 53.7786 89.9096 53.7879 89.9546 53.8064C89.9996 53.8249 90.0405 53.8522 90.0749 53.8867C90.1093 53.9212 90.1366 53.9623 90.1552 54.0075C90.1737 54.0527 90.1832 54.1011 90.183 54.15V61.4666C90.1846 61.5164 90.1759 61.566 90.1575 61.6123C90.1391 61.6586 90.1114 61.7005 90.0761 61.7355C90.0427 61.7729 90.0013 61.8021 89.9549 61.821C89.9086 61.8399 89.8586 61.8479 89.8088 61.8444H88.4722C88.4234 61.8448 88.3751 61.8354 88.33 61.8168C88.285 61.7982 88.244 61.7708 88.2096 61.7361C88.1751 61.7015 88.1479 61.6603 88.1294 61.6149C88.1109 61.5696 88.1016 61.521 88.1019 61.472V59.1151H86.7265L85.2295 61.6105C85.193 61.6812 85.1377 61.7404 85.0697 61.7815C85.0018 61.8225 84.9238 61.8438 84.8446 61.8431H83.5173C83.4768 61.8433 83.4367 61.8352 83.3995 61.8192C83.3623 61.8032 83.3287 61.7798 83.3008 61.7503C83.2716 61.7221 83.2485 61.6883 83.2326 61.6508C83.2168 61.6134 83.2086 61.5732 83.2085 61.5325C83.2082 61.4411 83.241 61.3527 83.3008 61.2838L84.9208 58.7427C84.4688 58.5623 84.0855 58.2422 83.8261 57.8285C83.5711 57.3977 83.4423 56.9032 83.4545 56.402C83.4545 55.5352 83.7218 54.8845 84.2565 54.4498C84.7911 54.0151 85.5833 53.791 86.633 53.7776L89.8128 53.7789ZM88.1313 55.2713H86.6797C86.1977 55.2713 85.8479 55.3609 85.6305 55.5402C85.4131 55.7194 85.3053 56.0085 85.307 56.4074C85.2978 56.5715 85.3217 56.7358 85.3773 56.8904C85.4329 57.0449 85.519 57.1866 85.6305 57.3068C85.847 57.5237 86.166 57.6322 86.5875 57.6322H88.1313V55.2713Z" fill="#383839"/>
<path d="M98.5275 61.8458C98.4293 61.8458 98.3352 61.8065 98.2657 61.7367C98.1963 61.6668 98.1573 61.5721 98.1573 61.4733V55.442H95.6565C95.6079 55.4422 95.5597 55.4327 95.5148 55.414C95.4699 55.3953 95.4291 55.3679 95.3948 55.3333C95.3604 55.2986 95.3333 55.2575 95.3149 55.2122C95.2965 55.167 95.2872 55.1185 95.2876 55.0696V54.154C95.2836 54.1039 95.2911 54.0536 95.3097 54.007C95.3282 53.9603 95.3573 53.9186 95.3945 53.8851C95.4291 53.8493 95.4708 53.8212 95.5168 53.8024C95.5628 53.7837 95.6122 53.7748 95.6618 53.7762H102.679C102.777 53.7762 102.871 53.8153 102.94 53.8848C103.01 53.9544 103.049 54.0488 103.049 54.1473V55.0629C103.051 55.1128 103.042 55.1626 103.024 55.2089C103.005 55.2552 102.977 55.2971 102.941 55.3318C102.908 55.3694 102.866 55.3988 102.82 55.4177C102.774 55.4366 102.724 55.4445 102.674 55.4407H100.178V61.4693C100.18 61.5191 100.171 61.5687 100.153 61.615C100.134 61.6613 100.107 61.7032 100.071 61.7382C100.038 61.7757 99.9966 61.805 99.9502 61.8238C99.9039 61.8427 99.8539 61.8507 99.804 61.8471L98.5275 61.8458Z" fill="#383839"/>
<path d="M107.915 61.9977C106.762 61.9977 105.847 61.6669 105.168 61.0055C104.489 60.344 104.132 59.4028 104.099 58.1821L104.084 57.7949C104.084 56.5024 104.418 55.4846 105.086 54.7416C105.755 53.9985 106.69 53.6265 107.893 53.6256C109.118 53.6256 110.059 53.9976 110.718 54.7416C111.376 55.4855 111.71 56.4773 111.72 57.7169V58.0422C111.722 58.0921 111.713 58.1417 111.694 58.1879C111.676 58.2342 111.648 58.2761 111.613 58.3111C111.576 58.3473 111.533 58.3756 111.485 58.3943C111.437 58.413 111.386 58.4218 111.335 58.42H106.217V58.5437C106.217 59.061 106.379 59.5652 106.68 59.985C106.825 60.1677 107.011 60.3134 107.223 60.4104C107.435 60.5073 107.666 60.5527 107.899 60.543C108.177 60.5487 108.454 60.4868 108.704 60.3626C108.954 60.2383 109.17 60.0553 109.335 59.829C109.392 59.7464 109.466 59.6775 109.552 59.6274C109.636 59.5893 109.728 59.5735 109.819 59.5817H111.177C111.261 59.5787 111.343 59.6059 111.409 59.6583C111.443 59.6826 111.471 59.7152 111.49 59.7533C111.509 59.7914 111.518 59.8336 111.517 59.8761C111.517 60.1235 111.368 60.4139 111.069 60.7594C110.719 61.1347 110.292 61.4303 109.819 61.6266C109.218 61.8865 108.569 62.013 107.915 61.9977ZM109.603 57.0998V57.0688C109.603 56.4593 109.449 55.9735 109.14 55.6114C108.985 55.436 108.795 55.2955 108.583 55.1994C108.37 55.1032 108.139 55.0535 107.906 55.0535C107.673 55.0535 107.442 55.1032 107.229 55.1994C107.017 55.2955 106.826 55.436 106.672 55.6114C106.372 55.97 106.223 56.4558 106.224 57.0688V57.0998H109.603Z" fill="#383839"/>
<path d="M113.178 61.8458C113.088 61.8465 113 61.8134 112.932 61.753C112.872 61.6844 112.839 61.5959 112.839 61.5043C112.839 61.4066 112.872 61.3119 112.932 61.2354L115.571 57.7021L113.133 54.3853C113.073 54.3087 113.04 54.214 113.039 54.1164C113.038 54.0732 113.046 54.0303 113.062 53.9903C113.078 53.9503 113.102 53.914 113.133 53.8838C113.164 53.8496 113.203 53.8223 113.245 53.8036C113.288 53.7848 113.334 53.7751 113.38 53.7749H114.737C114.781 53.7707 114.826 53.7754 114.868 53.7888C114.911 53.8022 114.95 53.824 114.984 53.8529C115.057 53.903 115.119 53.9658 115.17 54.0384L116.898 56.3482L118.612 54.0478C118.621 54.0371 118.657 53.9913 118.719 53.9134C118.76 53.8702 118.811 53.8367 118.867 53.8154C118.923 53.794 118.983 53.7852 119.043 53.7897H120.355C120.399 53.789 120.443 53.7984 120.483 53.8173C120.523 53.8362 120.558 53.864 120.586 53.8986C120.615 53.9264 120.638 53.96 120.654 53.9972C120.67 54.0344 120.678 54.0745 120.678 54.115C120.679 54.2159 120.646 54.3143 120.586 54.3947L118.117 57.7196L120.772 61.2381C120.831 61.3147 120.864 61.4094 120.864 61.5069C120.864 61.5536 120.854 61.5998 120.835 61.6426C120.817 61.6853 120.789 61.7238 120.756 61.7557C120.725 61.7862 120.689 61.8101 120.649 61.8261C120.61 61.842 120.567 61.8496 120.524 61.8484H119.105C119.02 61.8461 118.937 61.822 118.864 61.7785C118.791 61.735 118.73 61.6734 118.688 61.5997L116.837 59.1514L114.965 61.5997C114.922 61.6729 114.861 61.7339 114.788 61.777C114.715 61.82 114.633 61.8437 114.548 61.8458H113.178Z" fill="#383839"/>
<path d="M122.768 61.8458C122.67 61.8458 122.576 61.8065 122.507 61.7367C122.437 61.6668 122.398 61.5721 122.398 61.4733V54.154C122.394 54.1038 122.402 54.0534 122.421 54.0068C122.44 53.9601 122.469 53.9185 122.506 53.8851C122.541 53.8492 122.583 53.8209 122.629 53.8022C122.675 53.7834 122.724 53.7746 122.774 53.7762H124.086C124.136 53.7748 124.185 53.7837 124.231 53.8024C124.277 53.8212 124.319 53.8493 124.354 53.8851C124.39 53.9198 124.418 53.9616 124.436 54.0079C124.455 54.0543 124.464 54.1041 124.462 54.154V56.9142H127.902V54.154C127.902 54.0566 127.939 53.9628 128.006 53.8927C128.073 53.8226 128.165 53.7817 128.262 53.7789H129.575C129.672 53.7789 129.766 53.818 129.836 53.8875C129.905 53.9571 129.944 54.0515 129.945 54.15V61.4666C129.946 61.5166 129.938 61.5663 129.919 61.6126C129.9 61.6589 129.872 61.7008 129.837 61.7355C129.803 61.7731 129.762 61.8024 129.715 61.8213C129.669 61.8402 129.619 61.8481 129.569 61.8444H128.262C128.164 61.8444 128.07 61.8052 128 61.7353C127.931 61.6655 127.892 61.5708 127.892 61.472V58.572H124.451V61.4706C124.451 61.5694 124.412 61.6641 124.343 61.734C124.273 61.8038 124.179 61.8431 124.081 61.8431L122.768 61.8458Z" fill="#383839"/>
<path d="M139.514 53.7789C139.56 53.7792 139.606 53.789 139.648 53.8077C139.69 53.8265 139.728 53.8537 139.76 53.8878C139.794 53.9157 139.822 53.9512 139.841 53.9915C139.859 54.0318 139.869 54.0759 139.868 54.1204V61.4666C139.869 61.5166 139.861 61.5663 139.842 61.6126C139.823 61.6589 139.795 61.7008 139.76 61.7355C139.726 61.7731 139.685 61.8026 139.639 61.8214C139.592 61.8403 139.542 61.8482 139.492 61.8444H138.18C138.081 61.8444 137.987 61.8052 137.918 61.7353C137.848 61.6655 137.809 61.5708 137.809 61.472V56.5257L134.152 61.5943C134.108 61.6697 134.045 61.7321 133.969 61.7757C133.893 61.8193 133.808 61.8425 133.721 61.8431H132.532C132.485 61.8481 132.436 61.8424 132.391 61.8262C132.345 61.81 132.304 61.7838 132.27 61.7496C132.236 61.7153 132.21 61.6738 132.194 61.6281C132.178 61.5824 132.172 61.5336 132.177 61.4854V54.154C132.173 54.1038 132.181 54.0534 132.2 54.0068C132.218 53.9601 132.248 53.9185 132.285 53.8851C132.32 53.8493 132.361 53.8212 132.407 53.8024C132.453 53.7837 132.503 53.7748 132.553 53.7762H133.865C133.963 53.7762 134.057 53.8153 134.126 53.8848C134.196 53.9544 134.235 54.0488 134.235 54.1473V59.0923L137.892 54.0236C137.939 53.9503 138.003 53.8895 138.078 53.8464C138.153 53.8033 138.238 53.7792 138.324 53.7762L139.514 53.7789Z" fill="#383839"/>
<path d="M149.39 61.3617C149.436 61.4194 149.463 61.4898 149.467 61.5634C149.469 61.6019 149.461 61.6402 149.445 61.6752C149.429 61.7102 149.405 61.7409 149.375 61.7651C149.309 61.8178 149.227 61.8454 149.143 61.8431H147.553C147.468 61.8465 147.384 61.8304 147.306 61.796C147.235 61.7447 147.173 61.682 147.122 61.6105L145.117 58.5881H143.99V61.4706C143.992 61.5206 143.983 61.5703 143.964 61.6166C143.946 61.6629 143.917 61.7048 143.882 61.7395C143.848 61.7772 143.807 61.8066 143.761 61.8255C143.714 61.8444 143.664 61.8522 143.614 61.8484H142.334C142.285 61.8488 142.237 61.8394 142.192 61.8208C142.147 61.8022 142.106 61.7748 142.071 61.7402C142.037 61.7055 142.01 61.6643 141.991 61.619C141.973 61.5736 141.963 61.525 141.964 61.476V54.154C141.96 54.1039 141.967 54.0536 141.986 54.007C142.004 53.9603 142.033 53.9186 142.071 53.8851C142.105 53.8493 142.147 53.8211 142.193 53.8023C142.239 53.7836 142.288 53.7747 142.338 53.7762H143.618C143.716 53.7762 143.81 53.8153 143.88 53.8848C143.949 53.9544 143.988 54.0488 143.989 54.1473V56.9075H145.13L146.967 54.0236C147.018 53.9523 147.081 53.8896 147.152 53.8381C147.221 53.7943 147.302 53.7727 147.384 53.7762H148.803C148.892 53.7714 148.98 53.7991 149.05 53.8542C149.08 53.8783 149.104 53.9091 149.12 53.9441C149.136 53.9791 149.144 54.0174 149.143 54.0559C149.128 54.1268 149.103 54.195 149.066 54.2575L146.874 57.6779L149.39 61.3617Z" fill="#383839"/>
<path d="M153.298 61.9977C152.798 62.0031 152.303 61.8971 151.848 61.6871C151.437 61.4891 151.081 61.191 150.813 60.8199C150.505 60.3684 150.382 59.8141 150.471 59.2735C150.561 58.733 150.855 58.2482 151.292 57.9212C151.858 57.4865 152.634 57.1921 153.622 57.0379L155.736 56.7273V56.402C155.736 55.9538 155.623 55.6182 155.397 55.395C155.171 55.1678 154.81 55.0535 154.317 55.0535C154.032 55.04 153.749 55.1046 153.499 55.2404C153.314 55.348 153.143 55.478 152.989 55.6276L152.742 55.875C152.732 55.9293 152.703 55.9781 152.66 56.0128C152.617 56.0475 152.563 56.0658 152.508 56.0645H151.305C151.214 56.065 151.126 56.0314 151.058 55.9704C151.027 55.9376 151.003 55.8987 150.987 55.8561C150.972 55.8136 150.965 55.7683 150.967 55.723C150.976 55.4649 151.101 55.1758 151.337 54.8545C151.638 54.4821 152.024 54.1894 152.463 54.0021C153.05 53.7371 153.69 53.6102 154.334 53.631C155.548 53.631 156.433 53.9049 156.989 54.4525C157.545 55.0001 157.823 55.7172 157.823 56.6037V61.4706C157.824 61.5206 157.815 61.5703 157.797 61.6166C157.778 61.6629 157.75 61.7048 157.714 61.7395C157.681 61.777 157.64 61.8063 157.593 61.8252C157.547 61.8441 157.497 61.852 157.447 61.8484H156.167C156.068 61.8484 155.974 61.8092 155.905 61.7394C155.835 61.6695 155.796 61.5748 155.796 61.476V60.871C155.549 61.22 155.221 61.5022 154.839 61.6925C154.356 61.9127 153.828 62.0172 153.298 61.9977ZM153.822 60.5093C154.079 60.5187 154.336 60.4739 154.575 60.3778C154.814 60.2817 155.031 60.1365 155.211 59.9514C155.567 59.5803 155.746 59.0425 155.746 58.338V58.0288L154.202 58.2762C153.018 58.4635 152.427 58.8615 152.427 59.4701C152.422 59.623 152.456 59.7746 152.526 59.9102C152.596 60.0459 152.7 60.161 152.828 60.2445C153.127 60.4273 153.472 60.5193 153.822 60.5093Z" fill="#383839"/>
<path d="M37.8424 0V44.7158H23.9255L22.8749 42.8524C20.6481 44.5289 17.5565 45.3356 13.6001 45.3356C9.89098 45.3356 6.6831 44.4671 4.01921 42.6655C1.29786 40.872 0 37.6977 0 33.1023V25.6485C0 21.0531 1.17489 17.8237 3.64763 15.8984C6.12172 14.035 9.15183 13.0414 12.8609 13.0414C15.8296 13.0414 18.6084 13.8481 21.271 15.3404V0H37.8424ZM17.376 37.0147C17.8719 37.4489 18.4895 37.6345 19.2941 37.6345C19.9731 37.6345 20.8392 37.4489 21.8337 36.9515V22.7928C20.7831 22.5441 19.8555 22.3572 19.0522 22.3572C18.4201 22.3624 17.8081 22.5812 17.3146 22.9784C16.82 23.414 16.6342 24.0338 16.6342 24.8418V35.0907C16.6329 35.9579 16.8802 36.5791 17.376 37.0147Z" stroke="black" stroke-width="2" mask="url(#path-1-inside-1_1_34)"/>
<path d="M119.16 33.4935C119.16 36.536 118.478 38.8969 117.18 40.5722C115.819 42.2501 113.903 43.4292 111.299 44.0503C108.702 44.7346 105.302 45.0452 101.097 45.0452C96.5213 45.0452 92.9966 44.8583 90.461 44.3609C87.864 43.8648 85.823 42.7475 84.3393 40.9459C82.7929 39.1443 82.051 36.3505 82.051 32.5618V24.6119C82.051 20.8232 82.7929 18.024 84.3393 16.2278C85.823 14.4894 87.864 13.3708 90.3996 12.8747C92.9351 12.3786 96.5213 12.1298 101.093 12.1298C105.606 12.1298 109.192 12.4404 111.785 13.0602C114.379 13.68 116.238 14.6736 117.413 16.0423C118.526 17.4701 119.15 19.4572 119.15 21.9418V24.5501H103.206V22.7485C103.206 21.8181 102.958 21.1351 102.587 20.6377C102.381 20.3966 102.124 20.205 101.834 20.0771C101.545 19.9491 101.231 19.888 100.915 19.8982C100.173 19.8982 99.6169 20.1465 99.2453 20.643C98.8751 21.1391 98.6893 21.8853 98.6893 22.8171V34.12C98.6893 36.1072 99.4311 37.0389 100.915 37.0389C101.595 37.0389 102.151 36.852 102.584 36.3559C102.956 35.8584 103.203 35.1136 103.203 34.12V31.3262H119.16V33.4935Z" stroke="black" stroke-width="2" mask="url(#path-1-inside-1_1_34)"/>
<path d="M124.14 16.2278C125.623 14.4889 127.664 13.3712 130.262 12.8747C132.801 12.3772 136.32 12.1298 140.897 12.1298C145.474 12.1298 148.997 12.3772 151.59 12.8747C154.126 13.3703 156.167 14.488 157.712 16.2278C159.195 18.0294 160 20.8232 160 24.6119V32.5618C160 36.3505 159.198 39.1497 157.712 40.9459C156.165 42.7462 154.126 43.8648 151.59 44.3609C148.993 44.8583 145.468 45.0452 140.897 45.0452C136.326 45.0452 132.797 44.8583 130.262 44.3609C127.664 43.8648 125.623 42.7475 124.14 40.9459C122.593 39.1443 121.852 36.3505 121.852 32.5618V24.6119C121.852 20.8232 122.593 18.0294 124.14 16.2278ZM138.486 34.1093C138.486 36.0964 139.288 37.0281 140.892 37.0281C142.496 37.0281 143.364 36.0964 143.364 34.1093V22.6813C143.364 20.8178 142.5 19.8243 140.892 19.8243C140.09 19.8243 139.47 20.073 139.098 20.5704C138.665 21.0665 138.48 21.8127 138.48 22.6813L138.486 34.1093Z" stroke="black" stroke-width="2" mask="url(#path-1-inside-1_1_34)"/>
<path d="M79.1279 34.9845V13.2484H61.9777V35.1633C61.9777 35.9082 61.7932 36.4043 61.4217 36.7149C61.0501 37.0886 60.5555 37.2123 60.061 37.2123C59.5664 37.2123 59.0719 37.0886 58.7016 36.7149C58.3301 36.4043 58.1443 35.9082 58.1443 35.1633V13.2484H41.0516V34.9845C41.0516 38.5868 42.0411 41.1333 44.0202 42.6238C45.9984 44.1767 48.4712 44.9215 51.4398 44.9215H68.745C71.7123 44.9215 74.1864 44.1767 76.1646 42.6238C78.1401 41.1333 79.1279 38.5868 79.1279 34.9845Z" stroke="black" stroke-width="2" mask="url(#path-1-inside-1_1_34)"/>
<path d="M4.59931 61.9977C3.77595 61.9977 3.10764 61.8735 2.59438 61.6253C2.15551 61.4306 1.77323 61.1266 1.48365 60.7419C1.27057 60.4303 1.13741 60.0705 1.09603 59.6946V59.6798C1.09552 59.645 1.10215 59.6104 1.11548 59.5783C1.12882 59.5461 1.14858 59.5171 1.17355 59.4929C1.23388 59.4424 1.31022 59.4152 1.38875 59.4163H2.67324C2.75956 59.4137 2.84456 59.4381 2.91642 59.4863C2.98828 59.5345 3.04344 59.604 3.07422 59.6852C3.11472 59.8225 3.18317 59.9498 3.27521 60.059C3.36725 60.1683 3.48088 60.2571 3.60887 60.3198C3.9483 60.4565 4.31293 60.5184 4.67817 60.5013C5.05303 60.5183 5.42468 60.4249 5.74746 60.2324C5.88146 60.1508 5.99098 60.0342 6.06441 59.895C6.13783 59.7558 6.17242 59.5992 6.16449 59.4418C6.16449 58.749 5.74791 58.4026 4.91475 58.4026H4.05931C4.014 58.4047 3.96873 58.3976 3.92623 58.3817C3.88372 58.3657 3.84488 58.3413 3.81204 58.3098C3.75205 58.2416 3.71921 58.1535 3.71981 58.0624V57.3902C3.71861 57.3471 3.72618 57.3043 3.74204 57.2643C3.7579 57.2243 3.78172 57.188 3.81204 57.1576C3.84243 57.1219 3.88049 57.0937 3.92334 57.0751C3.96618 57.0565 4.01268 57.0479 4.05931 57.05H4.84658C5.21682 57.05 5.49484 56.9814 5.6793 56.8483C5.7758 56.7669 5.85144 56.6633 5.89982 56.5463C5.9482 56.4293 5.96792 56.3024 5.95731 56.1761C5.95811 56.0357 5.92768 55.8969 5.86824 55.7699C5.8088 55.6429 5.72186 55.5309 5.6138 55.442C5.39727 55.2439 5.05777 55.1454 4.5953 55.1462C4.13283 55.1471 3.79333 55.2197 3.57679 55.3641C3.35132 55.5403 3.19013 55.7865 3.11833 56.0645C3.0863 56.1443 3.03065 56.2123 2.95891 56.2592C2.88718 56.3061 2.80285 56.3296 2.71735 56.3267H1.48231C1.40334 56.328 1.32652 56.3008 1.26578 56.2501C1.23768 56.2252 1.21596 56.1939 1.20246 56.1588C1.18897 56.1237 1.18409 56.0858 1.18825 56.0484C1.21001 55.6331 1.34353 55.2316 1.57454 54.8868C1.85747 54.4853 2.24834 54.1733 2.70131 53.9873C3.20566 53.7498 3.83832 53.631 4.59931 53.631C5.74078 53.631 6.57929 53.8529 7.11482 54.2965C7.65036 54.7402 7.92303 55.278 7.93283 55.9099C7.94514 56.2606 7.86538 56.6084 7.7016 56.9183C7.52956 57.2126 7.27013 57.4454 6.95978 57.5838C7.78313 57.8948 8.19481 58.5715 8.19481 59.6139C8.20252 59.9688 8.11606 60.3193 7.94432 60.6293C7.77258 60.9394 7.52178 61.1978 7.21774 61.3779C6.57349 61.7911 5.70068 61.9977 4.59931 61.9977Z" stroke="black" stroke-width="2" mask="url(#path-1-inside-1_1_34)"/>
<path d="M12.2715 61.9977C11.7731 62.002 11.2798 61.8959 10.8266 61.6871C10.4161 61.4887 10.061 61.1907 9.79341 60.8199C9.48482 60.3684 9.36226 59.8141 9.45149 59.2735C9.54073 58.733 9.8348 58.2482 10.2719 57.9212C10.8378 57.4865 11.6143 57.1921 12.6016 57.0379L14.7162 56.7273V56.402C14.7162 55.9538 14.603 55.6182 14.3767 55.395C14.1503 55.1718 13.7903 55.058 13.2967 55.0535C13.0122 55.04 12.7295 55.1046 12.4787 55.2404C12.2938 55.348 12.1228 55.478 11.9694 55.6276L11.7221 55.875C11.7114 55.9298 11.6815 55.9791 11.6379 56.0138C11.5943 56.0486 11.5398 56.0665 11.4842 56.0645H10.2813C10.1904 56.0654 10.1026 56.0318 10.0353 55.9704C10.0036 55.9379 9.97887 55.8992 9.96277 55.8566C9.94666 55.814 9.93951 55.7685 9.94177 55.723C9.97696 55.4033 10.1053 55.1011 10.3107 54.8545C10.6117 54.4824 10.9985 54.1898 11.4374 54.0021C12.0251 53.737 12.665 53.6101 13.3087 53.631C14.5224 53.631 15.4072 53.9049 15.9632 54.4525C16.5193 55.0001 16.7973 55.7172 16.7973 56.6037V61.4706C16.7989 61.5206 16.7901 61.5703 16.7715 61.6166C16.7528 61.6629 16.7247 61.7048 16.689 61.7395C16.6557 61.777 16.6143 61.8063 16.5679 61.8252C16.5216 61.8441 16.4716 61.852 16.4217 61.8484H15.1412C15.043 61.8484 14.9489 61.8092 14.8794 61.7394C14.81 61.6695 14.771 61.5748 14.771 61.476V60.871C14.5241 61.22 14.1954 61.5022 13.814 61.6925C13.3302 61.9128 12.8022 62.0172 12.2715 61.9977ZM12.7955 60.5093C13.0528 60.5187 13.3092 60.4739 13.5484 60.3778C13.7875 60.2817 14.0041 60.1365 14.1842 59.9514C14.5406 59.5803 14.7189 59.0425 14.7189 58.338V58.0288L13.1764 58.2762C11.993 58.4635 11.4014 58.8615 11.4014 59.4701C11.3963 59.623 11.4305 59.7746 11.5008 59.9102C11.571 60.0459 11.6749 60.161 11.8023 60.2445C12.1011 60.4272 12.446 60.5192 12.7955 60.5093Z" stroke="black" stroke-width="2" mask="url(#path-1-inside-1_1_34)"/>
<path d="M26.4263 57.6268C26.4463 57.854 26.457 58.0301 26.457 58.1646C26.4552 58.325 26.4449 58.4852 26.4263 58.6446C26.3755 59.6771 26.0191 60.4932 25.357 61.0928C24.6949 61.6925 23.7642 61.9923 22.5648 61.9923C21.2888 61.9923 20.3371 61.6616 19.7098 61.0001C19.0825 60.3386 18.743 59.3468 18.6913 58.0248L18.6752 57.0944L18.6913 56.164C18.7216 54.6976 18.9479 53.5974 19.3703 52.8633C19.7836 52.136 20.4316 51.5724 21.2068 51.2661C22.0088 50.9255 23.3102 50.5378 25.1111 50.1031L25.2033 50.0883C25.2438 50.0882 25.2838 50.0964 25.321 50.1123C25.3583 50.1283 25.3919 50.1517 25.4198 50.1811C25.4532 50.2042 25.4815 50.234 25.5026 50.2688C25.5238 50.3035 25.5375 50.3424 25.5428 50.3828L25.7433 51.4221L25.7593 51.5148C25.76 51.594 25.7325 51.6707 25.6818 51.7313C25.63 51.7932 25.5597 51.8366 25.4813 51.855C25.2755 51.8967 25.1204 51.933 25.0175 51.9639C24.1131 52.1412 23.2203 52.3742 22.3443 52.6617C21.8627 52.8164 21.4417 53.1198 21.1413 53.5288C20.8646 53.912 20.7042 54.5009 20.6641 55.2968C20.9254 54.9752 21.2583 54.72 21.6359 54.552C22.0434 54.3673 22.4854 54.2724 22.9324 54.2737C24.0124 54.2737 24.8509 54.5735 25.4479 55.1731C26.0449 55.7728 26.3711 56.5907 26.4263 57.6268ZM24.2971 58.5679C24.3093 58.4339 24.3142 58.2992 24.3118 58.1646C24.3118 57.9468 24.3118 57.7922 24.2971 57.6994C24.2757 57.0585 24.1211 56.5678 23.8333 56.2272C23.6933 56.0571 23.5157 55.9222 23.3148 55.8332C23.1138 55.7443 22.895 55.7038 22.6757 55.715C22.4302 55.7035 22.1851 55.7445 21.9566 55.8354C21.728 55.9262 21.5212 56.0648 21.3498 56.242C21.0192 56.5835 20.8441 57.0693 20.8245 57.6994L20.8085 58.1646L20.8245 58.5679C20.8446 59.22 21.005 59.7148 21.303 60.0563C21.6011 60.3978 22.0235 60.5524 22.5688 60.5524C23.1142 60.5524 23.5298 60.387 23.8186 60.0563C24.1073 59.7255 24.2757 59.224 24.2971 58.572V58.5679Z" stroke="black" stroke-width="2" mask="url(#path-1-inside-1_1_34)"/>
<path d="M31.869 61.9977C30.6545 61.9977 29.7188 61.6876 29.0621 61.0673C28.4054 60.4471 28.049 59.5893 27.9928 58.494L27.9768 57.8123L27.9928 57.1307C28.0436 56.0461 28.4036 55.1946 29.0728 54.5762C29.742 53.9577 30.6732 53.644 31.8663 53.6351C33.0488 53.6351 33.9746 53.9488 34.6438 54.5762C35.313 55.2036 35.673 56.0551 35.7238 57.1307C35.7345 57.2544 35.7399 57.4816 35.7399 57.8123C35.7399 58.1431 35.7345 58.3703 35.7238 58.494C35.673 59.5902 35.3166 60.4479 34.6545 61.0673C33.9924 61.6867 33.0639 61.9968 31.869 61.9977ZM31.869 60.4327C32.4143 60.4327 32.8309 60.262 33.1187 59.9205C33.4066 59.579 33.5661 59.0779 33.5973 58.4173C33.608 58.3138 33.612 58.1122 33.612 57.8123C33.612 57.5125 33.612 57.3122 33.5973 57.2087C33.5759 56.5472 33.4164 56.0457 33.1187 55.7042C32.8211 55.3627 32.4045 55.1875 31.869 55.1785C31.3237 55.1785 30.9017 55.3537 30.6032 55.7042C30.3047 56.0547 30.1452 56.5562 30.1247 57.2087L30.11 57.8123L30.1247 58.4173C30.1452 59.0788 30.3047 59.5799 30.6032 59.9205C30.9017 60.2611 31.3237 60.4318 31.869 60.4327Z" stroke="black" stroke-width="2" mask="url(#path-1-inside-1_1_34)"/>
<path d="M40.0438 61.8458C39.9456 61.8458 39.8514 61.8065 39.782 61.7367C39.7125 61.6668 39.6735 61.5721 39.6735 61.4733V55.442H37.174C37.0759 55.442 36.9817 55.4028 36.9123 55.333C36.8428 55.2631 36.8038 55.1684 36.8038 55.0696V54.154C36.7999 54.1038 36.8077 54.0534 36.8265 54.0068C36.8453 53.9601 36.8746 53.9185 36.9121 53.8851C36.9465 53.8491 36.9882 53.8208 37.0342 53.8021C37.0803 53.7833 37.1297 53.7745 37.1794 53.7762H44.2007C44.2986 53.7762 44.3926 53.8153 44.462 53.8848C44.5314 53.9544 44.5705 54.0488 44.5709 54.1473V55.0629C44.5725 55.1128 44.5637 55.1626 44.5451 55.2089C44.5264 55.2552 44.4984 55.2971 44.4626 55.3318C44.4294 55.3694 44.388 55.3988 44.3416 55.4177C44.2953 55.4366 44.2452 55.4445 44.1953 55.4407H41.7025V61.4693C41.7041 61.5192 41.6954 61.569 41.6767 61.6153C41.6581 61.6616 41.63 61.7035 41.5942 61.7382C41.561 61.7758 41.5196 61.8051 41.4732 61.824C41.4269 61.8429 41.3768 61.8508 41.3269 61.8471L40.0438 61.8458Z" stroke="black" stroke-width="2" mask="url(#path-1-inside-1_1_34)"/>
<path d="M45.7124 61.8458C45.6613 61.8478 45.6103 61.8393 45.5626 61.8205C45.515 61.8018 45.4717 61.7734 45.4356 61.737C45.3994 61.7006 45.3711 61.6571 45.3525 61.6092C45.3339 61.5612 45.3254 61.51 45.3274 61.4585V60.4663C45.3254 60.4208 45.3325 60.3752 45.3483 60.3325C45.3642 60.2898 45.3884 60.2507 45.4197 60.2176C45.4951 60.1539 45.5887 60.1158 45.687 60.1087C46.1396 60.0791 46.464 59.7654 46.66 59.1676C46.8561 58.5697 46.9536 57.5986 46.9528 56.2541V54.154C46.9489 54.1038 46.9567 54.0534 46.9754 54.0068C46.9942 53.9601 47.0235 53.9185 47.061 53.8851C47.0955 53.8492 47.1372 53.8209 47.1832 53.8022C47.2293 53.7834 47.2787 53.7746 47.3283 53.7762H52.8379C52.9359 53.7762 53.0298 53.8153 53.0992 53.8848C53.1686 53.9544 53.2078 54.0488 53.2081 54.1473V61.4639C53.2098 61.5139 53.201 61.5636 53.1823 61.6099C53.1637 61.6562 53.1356 61.6981 53.0999 61.7328C53.0667 61.7705 53.0253 61.7999 52.9789 61.8188C52.9325 61.8376 52.8824 61.8455 52.8325 61.8417H51.5213C51.4717 61.8431 51.4223 61.8342 51.3763 61.8154C51.3303 61.7967 51.2887 61.7685 51.254 61.7328C51.2185 61.698 51.1907 61.6561 51.1723 61.6097C51.1538 61.5634 51.1453 61.5138 51.1471 61.4639V55.442H48.9056V56.48C48.9056 57.8244 48.8026 58.8834 48.5968 59.657C48.391 60.4305 48.0568 60.9884 47.5943 61.3308C47.1417 61.6741 46.5143 61.8458 45.7124 61.8458Z" stroke="black" stroke-width="2" mask="url(#path-1-inside-1_1_34)"/>
<path d="M62.7569 53.7789C62.8032 53.779 62.8489 53.7888 62.8912 53.8075C62.9335 53.8263 62.9716 53.8536 63.0029 53.8878C63.0374 53.9157 63.0651 53.9512 63.0838 53.9915C63.1026 54.0318 63.1119 54.0759 63.1111 54.1204V61.4666C63.1128 61.5166 63.104 61.5663 63.0853 61.6126C63.0667 61.6589 63.0386 61.7008 63.0029 61.7355C62.9697 61.7731 62.9283 61.8026 62.8819 61.8214C62.8355 61.8403 62.7854 61.8482 62.7356 61.8444H61.4243C61.3261 61.8444 61.232 61.8052 61.1625 61.7353C61.0931 61.6655 61.0541 61.5708 61.0541 61.472V56.5257L57.3958 61.5943C57.3512 61.6697 57.288 61.7321 57.2123 61.7757C57.1367 61.8193 57.0512 61.8425 56.964 61.8431H55.7758C55.7279 61.8482 55.6795 61.8424 55.6341 61.8262C55.5887 61.8101 55.5475 61.7839 55.5136 61.7495C55.4796 61.7152 55.4537 61.6737 55.4378 61.628C55.4218 61.5823 55.4163 61.5336 55.4216 61.4854V54.154C55.4179 54.104 55.4256 54.0537 55.4441 54.0071C55.4626 53.9605 55.4915 53.9188 55.5285 53.8851C55.5632 53.8494 55.6048 53.8213 55.6508 53.8025C55.6968 53.7838 55.7462 53.7748 55.7958 53.7762H57.1071C57.205 53.7762 57.299 53.8153 57.3684 53.8848C57.4378 53.9544 57.4769 54.0488 57.4773 54.1473V59.0923L61.1356 54.0236C61.1823 53.9503 61.246 53.8895 61.3212 53.8464C61.3964 53.8033 61.4809 53.7792 61.5673 53.7762L62.7569 53.7789Z" stroke="black" stroke-width="2" mask="url(#path-1-inside-1_1_34)"/>
<path d="M65.5812 61.8458C65.483 61.8458 65.3888 61.8065 65.3194 61.7367C65.25 61.6668 65.211 61.5721 65.211 61.4733V54.154C65.2071 54.1038 65.2149 54.0534 65.2337 54.0068C65.2524 53.9601 65.2817 53.9185 65.3192 53.8851C65.3538 53.8492 65.3954 53.8209 65.4414 53.8022C65.4875 53.7834 65.5369 53.7746 65.5866 53.7762H69.0123C70.0816 53.7762 70.8836 53.9725 71.4182 54.3651C71.6812 54.5474 71.8942 54.7936 72.0372 55.0808C72.1802 55.3681 72.2487 55.687 72.2362 56.008C72.2524 56.354 72.1723 56.6976 72.005 57.0003C71.8244 57.2618 71.5872 57.4787 71.3113 57.6349C71.6592 57.7899 71.9503 58.0503 72.144 58.3797C72.3511 58.7142 72.4582 59.1016 72.4528 59.4956C72.4528 60.2503 72.1748 60.8289 71.6187 61.2313C71.0627 61.6338 70.2487 61.8386 69.1767 61.8458H65.5812ZM68.9762 57.0715C69.3204 57.0892 69.6612 56.995 69.948 56.8026C70.0634 56.7187 70.1565 56.6075 70.219 56.4787C70.2814 56.35 70.3114 56.2077 70.3062 56.0645C70.3176 55.9318 70.2918 55.7984 70.2318 55.6796C70.1718 55.5608 70.08 55.4613 69.9667 55.3923C69.7408 55.2578 69.4106 55.1906 68.9789 55.1906H67.2012V57.0729L68.9762 57.0715ZM69.0538 60.4327C69.3983 60.4517 69.7411 60.371 70.0415 60.2001C70.158 60.1232 70.2521 60.0166 70.3143 59.8912C70.3766 59.7658 70.4046 59.6261 70.3957 59.4862C70.3957 59.1465 70.2826 58.9036 70.0562 58.7575C69.8299 58.6114 69.4957 58.5343 69.0538 58.5262H67.2012V60.4327H69.0538Z" stroke="black" stroke-width="2" mask="url(#path-1-inside-1_1_34)"/>
<path d="M76.7219 61.9977C76.2217 62.0029 75.7265 61.8968 75.2717 61.6871C74.8611 61.4887 74.5061 61.1907 74.2385 60.8199C73.9292 60.3686 73.8063 59.8141 73.8956 59.2733C73.9848 58.7326 74.2793 58.2478 74.717 57.9212C75.2828 57.4865 76.0594 57.1921 77.0467 57.0379L79.1599 56.7273V56.402C79.1599 55.9538 79.0472 55.6182 78.8218 55.395C78.5945 55.1678 78.235 55.0535 77.7404 55.0535C77.456 55.0404 77.1733 55.1049 76.9224 55.2404C76.738 55.3487 76.5671 55.4786 76.4132 55.6276L76.1672 55.875C76.1561 55.9282 76.127 55.9759 76.0848 56.01C76.0427 56.044 75.9901 56.0624 75.936 56.0618H74.733C74.6418 56.0625 74.5537 56.029 74.4858 55.9677C74.4545 55.935 74.4301 55.8961 74.4143 55.8536C74.3984 55.8111 74.3914 55.7657 74.3935 55.7203C74.4291 55.4004 74.5579 55.0983 74.7638 54.8518C75.0648 54.4797 75.4516 54.1871 75.8906 53.9994C76.4782 53.7343 77.1182 53.6074 77.7618 53.6283C78.9755 53.6283 79.8603 53.9022 80.4164 54.4498C80.9724 54.9975 81.25 55.7145 81.2491 56.601V61.468C81.2507 61.5179 81.2419 61.5676 81.2233 61.6139C81.2046 61.6603 81.1765 61.7021 81.1408 61.7369C81.1076 61.7745 81.0662 61.8039 81.0198 61.8228C80.9734 61.8417 80.9234 61.8495 80.8735 61.8458H79.593C79.4948 61.8458 79.4006 61.8065 79.3312 61.7367C79.2618 61.6668 79.2228 61.5721 79.2228 61.4733V60.8683C78.9759 61.2173 78.6472 61.4995 78.2657 61.6898C77.7817 61.9112 77.2533 62.0166 76.7219 61.9977ZM77.2472 60.5093C77.5046 60.5187 77.761 60.4739 78.0002 60.3778C78.2393 60.2817 78.4559 60.1365 78.636 59.9514C78.9924 59.5803 79.1706 59.0425 79.1706 58.338V58.0288L77.6268 58.2762C76.4444 58.4635 75.8531 58.8615 75.8531 59.4701C75.8481 59.623 75.8823 59.7746 75.9526 59.9102C76.0228 60.0459 76.1267 60.161 76.2541 60.2445C76.5529 60.4272 76.8977 60.5192 77.2472 60.5093Z" stroke="black" stroke-width="2" mask="url(#path-1-inside-1_1_34)"/>
<path d="M89.8128 53.7789C89.8614 53.7786 89.9096 53.7879 89.9546 53.8064C89.9996 53.8249 90.0405 53.8522 90.0749 53.8867C90.1093 53.9212 90.1366 53.9623 90.1552 54.0075C90.1737 54.0527 90.1832 54.1011 90.183 54.15V61.4666C90.1846 61.5164 90.1759 61.566 90.1575 61.6123C90.1391 61.6586 90.1114 61.7005 90.0761 61.7355C90.0427 61.7729 90.0013 61.8021 89.9549 61.821C89.9086 61.8399 89.8586 61.8479 89.8088 61.8444H88.4722C88.4234 61.8448 88.3751 61.8354 88.33 61.8168C88.285 61.7982 88.244 61.7708 88.2096 61.7361C88.1751 61.7015 88.1479 61.6603 88.1294 61.6149C88.1109 61.5696 88.1016 61.521 88.1019 61.472V59.1151H86.7265L85.2295 61.6105C85.193 61.6812 85.1377 61.7404 85.0697 61.7815C85.0018 61.8225 84.9238 61.8438 84.8446 61.8431H83.5173C83.4768 61.8433 83.4367 61.8352 83.3995 61.8192C83.3623 61.8032 83.3287 61.7798 83.3008 61.7503C83.2716 61.7221 83.2485 61.6883 83.2326 61.6508C83.2168 61.6134 83.2086 61.5732 83.2085 61.5325C83.2082 61.4411 83.241 61.3527 83.3008 61.2838L84.9208 58.7427C84.4688 58.5623 84.0855 58.2422 83.8261 57.8285C83.5711 57.3977 83.4423 56.9032 83.4545 56.402C83.4545 55.5352 83.7218 54.8845 84.2565 54.4498C84.7911 54.0151 85.5833 53.791 86.633 53.7776L89.8128 53.7789ZM88.1313 55.2713H86.6797C86.1977 55.2713 85.8479 55.3609 85.6305 55.5402C85.4131 55.7194 85.3053 56.0085 85.307 56.4074C85.2978 56.5715 85.3217 56.7358 85.3773 56.8904C85.4329 57.0449 85.519 57.1866 85.6305 57.3068C85.847 57.5237 86.166 57.6322 86.5875 57.6322H88.1313V55.2713Z" stroke="black" stroke-width="2" mask="url(#path-1-inside-1_1_34)"/>
<path d="M98.5275 61.8458C98.4293 61.8458 98.3352 61.8065 98.2657 61.7367C98.1963 61.6668 98.1573 61.5721 98.1573 61.4733V55.442H95.6565C95.6079 55.4422 95.5597 55.4327 95.5148 55.414C95.4699 55.3953 95.4291 55.3679 95.3948 55.3333C95.3604 55.2986 95.3333 55.2575 95.3149 55.2122C95.2965 55.167 95.2872 55.1185 95.2876 55.0696V54.154C95.2836 54.1039 95.2911 54.0536 95.3097 54.007C95.3282 53.9603 95.3573 53.9186 95.3945 53.8851C95.4291 53.8493 95.4708 53.8212 95.5168 53.8024C95.5628 53.7837 95.6122 53.7748 95.6618 53.7762H102.679C102.777 53.7762 102.871 53.8153 102.94 53.8848C103.01 53.9544 103.049 54.0488 103.049 54.1473V55.0629C103.051 55.1128 103.042 55.1626 103.024 55.2089C103.005 55.2552 102.977 55.2971 102.941 55.3318C102.908 55.3694 102.866 55.3988 102.82 55.4177C102.774 55.4366 102.724 55.4445 102.674 55.4407H100.178V61.4693C100.18 61.5191 100.171 61.5687 100.153 61.615C100.134 61.6613 100.107 61.7032 100.071 61.7382C100.038 61.7757 99.9966 61.805 99.9502 61.8238C99.9039 61.8427 99.8539 61.8507 99.804 61.8471L98.5275 61.8458Z" stroke="black" stroke-width="2" mask="url(#path-1-inside-1_1_34)"/>
<path d="M107.915 61.9977C106.762 61.9977 105.847 61.6669 105.168 61.0055C104.489 60.344 104.132 59.4028 104.099 58.1821L104.084 57.7949C104.084 56.5024 104.418 55.4846 105.086 54.7416C105.755 53.9985 106.69 53.6265 107.893 53.6256C109.118 53.6256 110.059 53.9976 110.718 54.7416C111.376 55.4855 111.71 56.4773 111.72 57.7169V58.0422C111.722 58.0921 111.713 58.1417 111.694 58.1879C111.676 58.2342 111.648 58.2761 111.613 58.3111C111.576 58.3473 111.533 58.3756 111.485 58.3943C111.437 58.413 111.386 58.4218 111.335 58.42H106.217V58.5437C106.217 59.061 106.379 59.5652 106.68 59.985C106.825 60.1677 107.011 60.3134 107.223 60.4104C107.435 60.5073 107.666 60.5527 107.899 60.543C108.177 60.5487 108.454 60.4868 108.704 60.3626C108.954 60.2383 109.17 60.0553 109.335 59.829C109.392 59.7464 109.466 59.6775 109.552 59.6274C109.636 59.5893 109.728 59.5735 109.819 59.5817H111.177C111.261 59.5787 111.343 59.6059 111.409 59.6583C111.443 59.6826 111.471 59.7152 111.49 59.7533C111.509 59.7914 111.518 59.8336 111.517 59.8761C111.517 60.1235 111.368 60.4139 111.069 60.7594C110.719 61.1347 110.292 61.4303 109.819 61.6266C109.218 61.8865 108.569 62.013 107.915 61.9977ZM109.603 57.0998V57.0688C109.603 56.4593 109.449 55.9735 109.14 55.6114C108.985 55.436 108.795 55.2955 108.583 55.1994C108.37 55.1032 108.139 55.0535 107.906 55.0535C107.673 55.0535 107.442 55.1032 107.229 55.1994C107.017 55.2955 106.826 55.436 106.672 55.6114C106.372 55.97 106.223 56.4558 106.224 57.0688V57.0998H109.603Z" stroke="black" stroke-width="2" mask="url(#path-1-inside-1_1_34)"/>
<path d="M113.178 61.8458C113.088 61.8465 113 61.8134 112.932 61.753C112.872 61.6844 112.839 61.5959 112.839 61.5043C112.839 61.4066 112.872 61.3119 112.932 61.2354L115.571 57.7021L113.133 54.3853C113.073 54.3087 113.04 54.214 113.039 54.1164C113.038 54.0732 113.046 54.0303 113.062 53.9903C113.078 53.9503 113.102 53.914 113.133 53.8838C113.164 53.8496 113.203 53.8223 113.245 53.8036C113.288 53.7848 113.334 53.7751 113.38 53.7749H114.737C114.781 53.7707 114.826 53.7754 114.868 53.7888C114.911 53.8022 114.95 53.824 114.984 53.8529C115.057 53.903 115.119 53.9658 115.17 54.0384L116.898 56.3482L118.612 54.0478C118.621 54.0371 118.657 53.9913 118.719 53.9134C118.76 53.8702 118.811 53.8367 118.867 53.8154C118.923 53.794 118.983 53.7852 119.043 53.7897H120.355C120.399 53.789 120.443 53.7984 120.483 53.8173C120.523 53.8362 120.558 53.864 120.586 53.8986C120.615 53.9264 120.638 53.96 120.654 53.9972C120.67 54.0344 120.678 54.0745 120.678 54.115C120.679 54.2159 120.646 54.3143 120.586 54.3947L118.117 57.7196L120.772 61.2381C120.831 61.3147 120.864 61.4094 120.864 61.5069C120.864 61.5536 120.854 61.5998 120.835 61.6426C120.817 61.6853 120.789 61.7238 120.756 61.7557C120.725 61.7862 120.689 61.8101 120.649 61.8261C120.61 61.842 120.567 61.8496 120.524 61.8484H119.105C119.02 61.8461 118.937 61.822 118.864 61.7785C118.791 61.735 118.73 61.6734 118.688 61.5997L116.837 59.1514L114.965 61.5997C114.922 61.6729 114.861 61.7339 114.788 61.777C114.715 61.82 114.633 61.8437 114.548 61.8458H113.178Z" stroke="black" stroke-width="2" mask="url(#path-1-inside-1_1_34)"/>
<path d="M122.768 61.8458C122.67 61.8458 122.576 61.8065 122.507 61.7367C122.437 61.6668 122.398 61.5721 122.398 61.4733V54.154C122.394 54.1038 122.402 54.0534 122.421 54.0068C122.44 53.9601 122.469 53.9185 122.506 53.8851C122.541 53.8492 122.583 53.8209 122.629 53.8022C122.675 53.7834 122.724 53.7746 122.774 53.7762H124.086C124.136 53.7748 124.185 53.7837 124.231 53.8024C124.277 53.8212 124.319 53.8493 124.354 53.8851C124.39 53.9198 124.418 53.9616 124.436 54.0079C124.455 54.0543 124.464 54.1041 124.462 54.154V56.9142H127.902V54.154C127.902 54.0566 127.939 53.9628 128.006 53.8927C128.073 53.8226 128.165 53.7817 128.262 53.7789H129.575C129.672 53.7789 129.766 53.818 129.836 53.8875C129.905 53.9571 129.944 54.0515 129.945 54.15V61.4666C129.946 61.5166 129.938 61.5663 129.919 61.6126C129.9 61.6589 129.872 61.7008 129.837 61.7355C129.803 61.7731 129.762 61.8024 129.715 61.8213C129.669 61.8402 129.619 61.8481 129.569 61.8444H128.262C128.164 61.8444 128.07 61.8052 128 61.7353C127.931 61.6655 127.892 61.5708 127.892 61.472V58.572H124.451V61.4706C124.451 61.5694 124.412 61.6641 124.343 61.734C124.273 61.8038 124.179 61.8431 124.081 61.8431L122.768 61.8458Z" stroke="black" stroke-width="2" mask="url(#path-1-inside-1_1_34)"/>
<path d="M139.514 53.7789C139.56 53.7792 139.606 53.789 139.648 53.8077C139.69 53.8265 139.728 53.8537 139.76 53.8878C139.794 53.9157 139.822 53.9512 139.841 53.9915C139.859 54.0318 139.869 54.0759 139.868 54.1204V61.4666C139.869 61.5166 139.861 61.5663 139.842 61.6126C139.823 61.6589 139.795 61.7008 139.76 61.7355C139.726 61.7731 139.685 61.8026 139.639 61.8214C139.592 61.8403 139.542 61.8482 139.492 61.8444H138.18C138.081 61.8444 137.987 61.8052 137.918 61.7353C137.848 61.6655 137.809 61.5708 137.809 61.472V56.5257L134.152 61.5943C134.108 61.6697 134.045 61.7321 133.969 61.7757C133.893 61.8193 133.808 61.8425 133.721 61.8431H132.532C132.485 61.8481 132.436 61.8424 132.391 61.8262C132.345 61.81 132.304 61.7838 132.27 61.7496C132.236 61.7153 132.21 61.6738 132.194 61.6281C132.178 61.5824 132.172 61.5336 132.177 61.4854V54.154C132.173 54.1038 132.181 54.0534 132.2 54.0068C132.218 53.9601 132.248 53.9185 132.285 53.8851C132.32 53.8493 132.361 53.8212 132.407 53.8024C132.453 53.7837 132.503 53.7748 132.553 53.7762H133.865C133.963 53.7762 134.057 53.8153 134.126 53.8848C134.196 53.9544 134.235 54.0488 134.235 54.1473V59.0923L137.892 54.0236C137.939 53.9503 138.003 53.8895 138.078 53.8464C138.153 53.8033 138.238 53.7792 138.324 53.7762L139.514 53.7789Z" stroke="black" stroke-width="2" mask="url(#path-1-inside-1_1_34)"/>
<path d="M149.39 61.3617C149.436 61.4194 149.463 61.4898 149.467 61.5634C149.469 61.6019 149.461 61.6402 149.445 61.6752C149.429 61.7102 149.405 61.7409 149.375 61.7651C149.309 61.8178 149.227 61.8454 149.143 61.8431H147.553C147.468 61.8465 147.384 61.8304 147.306 61.796C147.235 61.7447 147.173 61.682 147.122 61.6105L145.117 58.5881H143.99V61.4706C143.992 61.5206 143.983 61.5703 143.964 61.6166C143.946 61.6629 143.917 61.7048 143.882 61.7395C143.848 61.7772 143.807 61.8066 143.761 61.8255C143.714 61.8444 143.664 61.8522 143.614 61.8484H142.334C142.285 61.8488 142.237 61.8394 142.192 61.8208C142.147 61.8022 142.106 61.7748 142.071 61.7402C142.037 61.7055 142.01 61.6643 141.991 61.619C141.973 61.5736 141.963 61.525 141.964 61.476V54.154C141.96 54.1039 141.967 54.0536 141.986 54.007C142.004 53.9603 142.033 53.9186 142.071 53.8851C142.105 53.8493 142.147 53.8211 142.193 53.8023C142.239 53.7836 142.288 53.7747 142.338 53.7762H143.618C143.716 53.7762 143.81 53.8153 143.88 53.8848C143.949 53.9544 143.988 54.0488 143.989 54.1473V56.9075H145.13L146.967 54.0236C147.018 53.9523 147.081 53.8896 147.152 53.8381C147.221 53.7943 147.302 53.7727 147.384 53.7762H148.803C148.892 53.7714 148.98 53.7991 149.05 53.8542C149.08 53.8783 149.104 53.9091 149.12 53.9441C149.136 53.9791 149.144 54.0174 149.143 54.0559C149.128 54.1268 149.103 54.195 149.066 54.2575L146.874 57.6779L149.39 61.3617Z" stroke="black" stroke-width="2" mask="url(#path-1-inside-1_1_34)"/>
<path d="M153.298 61.9977C152.798 62.0031 152.303 61.8971 151.848 61.6871C151.437 61.4891 151.081 61.191 150.813 60.8199C150.505 60.3684 150.382 59.8141 150.471 59.2735C150.561 58.733 150.855 58.2482 151.292 57.9212C151.858 57.4865 152.634 57.1921 153.622 57.0379L155.736 56.7273V56.402C155.736 55.9538 155.623 55.6182 155.397 55.395C155.171 55.1678 154.81 55.0535 154.317 55.0535C154.032 55.04 153.749 55.1046 153.499 55.2404C153.314 55.348 153.143 55.478 152.989 55.6276L152.742 55.875C152.732 55.9293 152.703 55.9781 152.66 56.0128C152.617 56.0475 152.563 56.0658 152.508 56.0645H151.305C151.214 56.065 151.126 56.0314 151.058 55.9704C151.027 55.9376 151.003 55.8987 150.987 55.8561C150.972 55.8136 150.965 55.7683 150.967 55.723C150.976 55.4649 151.101 55.1758 151.337 54.8545C151.638 54.4821 152.024 54.1894 152.463 54.0021C153.05 53.7371 153.69 53.6102 154.334 53.631C155.548 53.631 156.433 53.9049 156.989 54.4525C157.545 55.0001 157.823 55.7172 157.823 56.6037V61.4706C157.824 61.5206 157.815 61.5703 157.797 61.6166C157.778 61.6629 157.75 61.7048 157.714 61.7395C157.681 61.777 157.64 61.8063 157.593 61.8252C157.547 61.8441 157.497 61.852 157.447 61.8484H156.167C156.068 61.8484 155.974 61.8092 155.905 61.7394C155.835 61.6695 155.796 61.5748 155.796 61.476V60.871C155.549 61.22 155.221 61.5022 154.839 61.6925C154.356 61.9127 153.828 62.0172 153.298 61.9977ZM153.822 60.5093C154.079 60.5187 154.336 60.4739 154.575 60.3778C154.814 60.2817 155.031 60.1365 155.211 59.9514C155.567 59.5803 155.746 59.0425 155.746 58.338V58.0288L154.202 58.2762C153.018 58.4635 152.427 58.8615 152.427 59.4701C152.422 59.623 152.456 59.7746 152.526 59.9102C152.596 60.0459 152.7 60.161 152.828 60.2445C153.127 60.4273 153.472 60.5193 153.822 60.5093Z" stroke="black" stroke-width="2" mask="url(#path-1-inside-1_1_34)"/>
</svg>
